<svg width="479" height="542" viewBox="0 0 479 542" fill="none" xmlns="http://www.w3.org/2000/svg">
<path d="M340.101 141.104V153.972" stroke="#F8C65D" stroke-width="9" stroke-linecap="round"/>
<path d="M58.7686 358.099L70.4664 370.381L93.2771 348.156M58.7686 289.666L70.4664 301.949L93.2771 278.554M58.7686 220.649L70.4664 231.762L93.2771 208.952M59.9383 151.632L70.4664 162.745L95.0318 138.18M133.05 156.896H249.443M130.125 225.913H283.952M130.125 296.685H210.84M130.125 366.287H185.69" stroke="#F8C65D" stroke-width="3"/>
<path d="M300.914 56.8799H2.03418V456.945H223.123M338.931 251.064V185.556" stroke="white" stroke-width="3"/>
<path d="M339.516 66.2383V118.878" stroke="#F8C65D" stroke-width="9" stroke-linecap="round"/>
<path d="M331.884 17.8858C335.545 11.575 344.658 11.575 348.319 17.8858L436.605 170.082C440.279 176.415 435.71 184.348 428.388 184.348H251.814C244.493 184.348 239.923 176.415 243.597 170.082L331.884 17.8858Z" stroke="white" stroke-width="3"/>
<circle cx="306.177" cy="369.212" r="88.5732" stroke="#F8C65D" stroke-width="3"/>
<circle cx="306.177" cy="369.212" r="118.988" stroke="white" stroke-width="3"/>
<path d="M411.452 431.795L470.526 490.869C474.561 496.03 476.966 502.527 476.966 509.585C476.966 526.383 463.349 540 446.551 540C439.161 540 432.386 537.364 427.116 532.981L367.006 472.871" stroke="white" stroke-width="3"/>
</svg>
