<svg width="530" height="541" viewBox="0 0 530 541" fill="none" xmlns="http://www.w3.org/2000/svg">
<path d="M498.071 227.988C498.071 109.467 407.009 12.2139 291.033 2.37709M498.071 227.988L528.87 204.034M498.071 227.988L468.983 208.597M69.4791 330.081C56.6354 304.699 48.4315 276.57 45.9827 246.81M45.5852 214.87C47.3038 184.783 54.8967 156.27 67.2345 130.458M82.3735 103.651C99.0159 78.3692 120.588 56.6201 145.721 39.7719M175.822 22.7722C200.853 11.0649 228.378 3.80225 257.383 2" stroke="white" stroke-width="3"/>
<circle cx="287.041" cy="135.021" r="54.3945" stroke="#F8C65D" stroke-width="3"/>
<mask id="path-3-inside-1_42_84" fill="white">
<path d="M396.548 303.275C396.548 276.501 384.951 250.823 364.307 231.891C343.664 212.959 315.665 202.323 286.47 202.323C257.276 202.323 229.277 212.959 208.633 231.891C187.99 250.823 176.392 276.501 176.392 303.275L286.47 303.275H396.548Z"/>
</mask>
<path d="M396.548 303.275C396.548 276.501 384.951 250.823 364.307 231.891C343.664 212.959 315.665 202.323 286.47 202.323C257.276 202.323 229.277 212.959 208.633 231.891C187.99 250.823 176.392 276.501 176.392 303.275L286.47 303.275H396.548Z" stroke="white" stroke-width="6" mask="url(#path-3-inside-1_42_84)"/>
<rect x="2.1702" y="389.747" width="50.7624" height="170.795" rx="8.5" transform="rotate(-29.1157 2.1702 389.747)" stroke="#F8C65D" stroke-width="3"/>
<path d="M122.384 459.641L86.2054 391.698C84.3649 388.242 85.718 383.947 89.2077 382.17L154.269 349.04C165.211 343.467 177.9 342.399 189.62 346.063L270.799 371.44C273.737 372.359 276.283 374.235 278.03 376.77L280.127 379.812C285.564 387.7 283.017 398.556 274.64 403.203C272.131 404.595 269.189 404.991 266.401 404.311L210.232 390.625C208.5 390.203 206.672 390.458 205.121 391.338L204.429 391.73C201.551 393.363 200.209 396.788 201.212 399.941L201.672 401.387C202.452 403.839 204.515 405.665 207.044 406.143L299.322 423.567C305.365 424.708 311.616 423.752 317.042 420.857L437.362 356.659C443.214 353.537 450.115 353.04 456.354 355.292L460.411 356.757C467.266 359.231 471.835 365.737 471.835 373.025C471.835 379.265 468.474 385.021 463.04 388.088L287.293 487.28C276.674 493.274 264.141 494.905 252.341 491.83L135.158 461.295C133.678 460.91 132.105 461.142 130.8 461.94C127.856 463.738 124.005 462.686 122.384 459.641Z" stroke="white" stroke-width="3"/>
<circle cx="37.2265" cy="401.946" r="7.62564" stroke="white" stroke-width="3"/>
</svg>
