<svg width="75" height="72" viewBox="0 0 75 72" fill="none" xmlns="http://www.w3.org/2000/svg">
<path d="M38.9496 46.0794L37.4986 47.5304L36.1547 48.8743C35.5678 49.4614 34.6818 49.9186 33.8172 50.2066C32.9524 50.4947 31.9696 50.6599 31.1485 50.5436L31.1475 50.5434L9.48003 47.4481C9.47999 47.4481 9.47994 47.4481 9.4799 47.4481C8.18677 47.2636 6.73735 47.3905 5.41098 47.7666C4.07681 48.145 2.9404 48.7543 2.22503 49.4696C1.3585 50.3362 1.01051 51.4591 1.22271 52.5599L1.22273 52.56C1.47268 53.8578 2.48196 55.056 4.14823 55.77L4.14831 55.77L26.3526 65.2861L26.3527 65.2861C28.6133 66.2551 32.1908 66.5414 34.5756 65.9451L34.5756 65.945L43.8932 63.6154C46.0253 63.0823 49.295 61.9573 51.3039 61.0655L53.7647 59.9731C53.7648 59.9731 53.7648 59.9731 53.7648 59.9731C54.4357 59.6752 55.2466 59.6737 55.9392 59.8182C56.6318 59.9628 57.3744 60.2884 57.87 60.8297C57.87 60.8297 57.8701 60.8297 57.8701 60.8297L66.7603 70.5369C67.0908 70.8978 67.5414 71.0808 67.9967 71.0808C68.4016 71.0808 68.8057 70.9356 69.1276 70.6409C69.8099 70.016 69.8564 68.956 69.2316 68.2739L69.8584 67.6998L69.2316 68.2739L60.341 58.5669L60.341 58.5668C58.4657 56.5191 54.9442 55.7843 52.4052 56.911C52.4052 56.911 52.4052 56.911 52.4052 56.911L49.9443 58.0034L49.9442 58.0035C48.1313 58.8082 45.0052 59.884 43.0805 60.3652L38.9496 46.0794ZM38.9496 46.0794H36.8976H30.1152C27.1034 46.0794 24.6518 43.6277 24.6518 40.6159V39.8583C24.6518 36.8466 27.1034 34.3949 30.1152 34.3949H55.8739C57.1138 34.3949 58.578 34.7289 59.9772 35.3085C61.3764 35.888 62.6481 36.6871 63.525 37.564L64.1261 36.963M38.9496 46.0794L64.1261 36.963M61.1561 39.9339L61.156 39.9339C60.5479 39.3256 59.6171 38.7884 58.6946 38.4063C57.772 38.0242 56.7341 37.7459 55.8742 37.7459H30.1154C28.9616 37.7459 28.0027 38.7048 28.0027 39.8586V40.6162C28.0027 41.77 28.9616 42.7289 30.1154 42.7289H39.2068C40.5038 42.7289 41.3008 43.0875 41.792 43.4627C42.2936 43.846 42.5369 44.2937 42.6431 44.55C42.7493 44.8063 42.8938 45.295 42.8101 45.9207C42.7281 46.5332 42.4182 47.3504 41.501 48.2676L38.5244 51.2442L38.5244 51.2442C37.6191 52.1496 36.3124 52.9056 34.8769 53.3843C33.4415 53.8631 31.9428 54.0428 30.675 53.8611L30.6746 53.861L9.00665 50.7654L9.00623 50.7653C7.83571 50.5987 6.54971 50.8521 5.67453 51.1965L3.74979 51.9539L5.65097 52.7687L27.6727 62.2065L27.6727 62.2065C28.4965 62.5595 29.6121 62.7759 30.6848 62.862C31.7575 62.948 32.8933 62.9123 33.7629 62.6948C33.7629 62.6948 33.763 62.6948 33.763 62.6948L43.0805 60.3652L60.5549 40.5349L61.1561 39.9339ZM61.1561 39.9339L70.9777 49.7559L61.1561 39.9339ZM73.3477 49.7558C72.6929 50.41 71.6324 50.41 70.9779 49.756L73.3473 49.7562C73.3474 49.756 73.3475 49.7559 73.3477 49.7558ZM73.3477 49.7558C74.0018 49.1009 74.0014 48.0402 73.3474 47.3862L63.525 37.5641L64.1261 36.963M73.3477 49.7558L64.1261 36.963" fill="#F8C65D" stroke="#030410" stroke-width="1.7"/>
<path d="M7.98487 5.26069V4.41069H7.13487H5.49338C4.56812 4.41069 3.81802 3.66045 3.81802 2.73533C3.81802 1.81021 4.56812 1.05996 5.49338 1.05996H63.8294C64.7545 1.05996 65.5047 1.81007 65.5047 2.73533C65.5047 3.66059 64.7545 4.41069 63.8294 4.41069H53.8542H53.0042V5.26069V27.7365C53.0042 28.6615 52.2539 29.4118 51.3288 29.4118H17.9939C17.0687 29.4118 16.3186 28.6616 16.3186 27.7365V5.26069V4.41069H15.4686H12.1856H11.3356V5.26069V19.4027C11.3356 20.3278 10.5853 21.0781 9.66024 21.0781C8.73498 21.0781 7.98487 20.3279 7.98487 19.4027V5.26069ZM48.8034 26.0611H49.6534V25.2111V5.26069V4.41069H48.8034H20.5193H19.6693V5.26069V25.2111V26.0611H20.5193H48.8034Z" fill="#F8C65D" stroke="#030410" stroke-width="1.7"/>
</svg>
