<svg width="65" height="68" viewBox="0 0 65 68" fill="none" xmlns="http://www.w3.org/2000/svg">
<path d="M53.7631 14.6713L53.7634 14.6716C54.2098 15.1179 54.6219 15.5879 55.0152 16.0482L56.0722 17.2854H54.445H50.6472H50.1321L49.9472 16.8047C49.4217 15.4385 48.8255 14.1585 48.1612 12.9824L53.7631 14.6713ZM53.7631 14.6713C52.1633 13.074 50.3387 11.7065 48.3421 10.6177L47.3542 11.6849L47.3576 11.6901C47.641 12.1262 47.9111 12.5417 48.1605 12.981L53.7631 14.6713ZM53.7634 48.0701C54.2096 47.6241 54.6215 47.1557 55.0146 46.6937L56.0666 45.4576H54.4435H50.6484H50.1339L49.9487 45.9377C49.2222 47.8207 48.3548 49.5338 47.3665 51.0478L48.3532 52.1165C50.3461 51.0315 52.1683 49.6664 53.7634 48.0701ZM53.7634 48.0701L53.2332 47.5397L53.7637 48.0698C53.7636 48.0699 53.7635 48.07 53.7634 48.0701ZM37.0631 4.62012C22.2873 4.6213 10.3135 16.5952 10.3123 31.3709L37.0631 4.62012ZM37.0631 4.62012C51.8402 4.6213 63.814 16.5951 63.8151 31.3709L37.0631 4.62012ZM20.3641 14.6715L20.364 14.6716C19.9176 15.1178 19.5055 15.5879 19.1122 16.0479L18.0543 17.2853H19.6822H23.4776H23.9921L24.1773 16.8053C24.9039 14.9223 25.7713 13.2093 26.7608 11.694L25.7738 10.6254C23.7811 11.7118 21.9589 13.0781 20.3641 14.6715ZM17.0005 19.6484H16.5563L16.3428 20.0378C14.8003 22.8516 13.8305 26.0151 13.548 29.3759L13.4797 30.1887H14.2954H20.9736H21.693L21.723 29.4699C21.8541 26.3248 22.2763 23.3301 22.9881 20.5867L23.2316 19.6484H22.2621H17.0005ZM16.3454 42.7055L16.559 43.0947H17.0029H22.2594H23.2295L22.9852 42.1559C22.2701 39.4068 21.8268 36.4197 21.696 33.2707L21.6661 32.5518H20.9466H14.2952H13.4795L13.5479 33.3646C13.8305 36.7266 14.8003 39.8902 16.3454 42.7055ZM19.6837 45.4576H18.0598L19.1128 46.6939C19.5061 47.1557 19.9179 47.6241 20.3639 48.07C21.9626 49.6687 23.7862 51.0366 25.7861 52.1244L26.7712 51.0535C26.4868 50.6209 26.2158 50.2022 25.9639 49.7597C25.3009 48.5849 24.7059 47.3049 24.1789 45.9379L23.9938 45.4576H23.4791H19.6837ZM35.0726 54.8875L35.8822 54.9521V54.1398V46.2076V45.4576H35.1322H27.6582H26.5008L26.9737 46.5141C28.3822 49.6607 30.2263 52.1433 32.2289 53.6308C32.9049 54.1346 33.586 54.5065 34.27 54.7875L34.3666 54.8272L34.4703 54.839C34.6149 54.8554 34.7756 54.8665 34.9126 54.8759C34.9713 54.88 35.0257 54.8837 35.0726 54.8875ZM35.1322 43.0947H35.8822V42.3447V33.3018V32.5518H35.1322H24.8366H24.0522L24.0873 33.3354C24.2357 36.644 24.7379 39.7633 25.5537 42.5551L25.7114 43.0947H26.2736H35.1322ZM35.1322 30.1887H35.8822V29.4387V20.3984V19.6484H35.1322H26.2607H25.698L25.5406 20.1887C24.7285 22.9773 24.2076 26.0947 24.0591 29.4051L24.024 30.1887H24.8084H35.1322ZM35.1322 17.2854H35.8822V16.5354V8.60324V7.78525L35.0673 7.85605C35.0188 7.86027 34.9573 7.86471 34.8894 7.86962C34.7568 7.8792 34.6001 7.89053 34.4696 7.90527L34.3654 7.91704L34.2684 7.95697C33.5864 8.23766 32.9057 8.6079 32.2291 9.11085L32.228 9.11172C30.6928 10.2577 29.2434 11.9794 28.0228 14.144C27.6488 14.8027 27.3068 15.5076 26.9838 16.2289L26.5108 17.2854H27.6684H35.1322ZM57.7847 20.0378L57.5712 19.6484H57.127H51.8666H50.8965L51.1408 20.5872C51.8559 23.3364 52.2992 26.3223 52.4302 29.4699L52.4601 30.1887H53.1795H59.832H60.6477L60.5793 29.3759C60.2968 26.0151 59.3272 22.8517 57.7847 20.0378ZM39.0589 7.85605L38.2439 7.78525V8.60324V16.5354V17.2854H38.9939H46.4693H47.6274L47.1537 16.2286C45.744 13.0839 43.9012 10.5981 41.8963 9.11045C41.2199 8.6074 40.5379 8.23748 39.8583 7.95719L39.761 7.91706L39.6565 7.90526C39.526 7.89053 39.3694 7.87921 39.2368 7.86962C39.169 7.86472 39.1074 7.86027 39.0589 7.85605ZM38.9939 19.6484H38.2439V20.3984V29.4387V30.1887H38.9939H49.2894H50.0738L50.0387 29.4051C49.8905 26.099 49.3882 22.9797 48.5737 20.1883L48.4162 19.6484H47.8537H38.9939ZM41.8977 53.6304L41.4494 53.0291L41.8977 53.6304C43.4335 52.4854 44.883 50.762 46.1045 48.5978C46.4792 47.9396 46.8199 47.2328 47.1429 46.5157L47.6196 45.4576H46.4591H38.9939H38.2439V46.2076V54.1398V54.9527L39.0542 54.8874C39.1014 54.8836 39.1567 54.8798 39.2167 54.8757C39.3529 54.8662 39.513 54.8552 39.6557 54.839L39.7597 54.8271L39.8564 54.7873C40.5387 54.5065 41.2212 54.1347 41.8977 53.6304ZM38.2439 42.3447V43.0947H38.9939H47.8653H48.428L48.5853 42.5545C49.3976 39.7659 49.9185 36.6471 50.0669 33.3354L50.102 32.5518H49.3176H38.9939H38.2439V33.3018V42.3447ZM57.1243 43.0947H57.5682L57.7818 42.7056C59.3272 39.8902 60.2968 36.7266 60.5793 33.3646L60.6476 32.5518H59.832H53.1525H52.4331L52.4032 33.2706C52.272 36.4198 51.851 39.4143 51.1382 42.156L50.8941 43.0947H51.864H57.1243ZM37.063 58.123C22.2874 58.1217 10.3135 46.148 10.3123 31.371L37.063 58.123ZM63.8151 31.371C63.814 46.1478 51.8401 58.1217 37.0631 58.123L63.8151 31.371Z" fill="#F8C65D" stroke="#030410" stroke-width="1.5"/>
<path d="M37.0961 65.4087C43.002 65.4087 48.972 63.8745 54.409 60.6516L55.502 62.4348C49.7303 65.8624 43.3717 67.5 37.0962 67.5C24.9431 67.5014 13.071 61.3594 6.25835 50.2367L5.83197 50.4979L6.25834 50.2367C2.65464 44.3535 0.93347 37.8352 0.934815 31.4039L0.934815 31.4037C0.932306 19.4063 6.91681 7.68394 17.7734 0.830083L18.8649 2.61227C8.64773 9.075 3.02627 20.1028 3.0249 31.4038V31.4038C3.0249 37.4653 4.64082 43.5945 8.04034 49.1455C14.4613 59.6303 25.6409 65.4075 37.0961 65.4087Z" fill="#F8C65D" stroke="#030411"/>
</svg>
