<svg width="49" height="64" viewBox="0 0 49 64" fill="none" xmlns="http://www.w3.org/2000/svg">
<path d="M36.8879 7.78658V8.03658H37.1379H45.6733C47.2501 8.03658 48.5331 9.31967 48.533 10.8964V60.6535C48.533 62.2302 47.2499 63.5133 45.6732 63.5133H3.32685C1.75013 63.5133 0.467041 62.2302 0.467041 60.6535V50.0668C0.467041 49.6567 0.799442 49.3243 1.20957 49.3243C1.61968 49.3243 1.9521 49.6568 1.9521 50.0668V60.6534C1.9521 61.4117 2.56865 62.0282 3.32698 62.0282H45.6735C46.4318 62.0282 47.0483 61.4117 47.0483 60.6534V10.8964C47.0483 10.1381 46.4318 9.52152 45.6735 9.52152H43.4899H43.2399V9.77152V15.131C43.2399 15.5411 42.9075 15.8735 42.4974 15.8735C42.0872 15.8735 41.7549 15.541 41.7549 15.131V9.77152V9.52152H41.5049H37.138H36.888V9.77152V11.955C36.888 12.3652 36.5556 12.6976 36.1455 12.6976H12.855C12.4449 12.6976 12.1125 12.3651 12.1125 11.955V9.77152V9.52152H11.8625H7.49543H7.24543V9.77152V56.4848V56.7348H7.49543H41.5049H41.7549V56.4848V20.4243C41.7549 20.0142 42.0873 19.6818 42.4974 19.6818C42.9076 19.6818 43.2399 20.0142 43.2399 20.4243V57.4773C43.2399 57.8874 42.9075 58.2198 42.4974 58.2198H6.50315C6.09304 58.2198 5.76061 57.8873 5.76061 57.4773V9.77152V9.52152H5.51061H3.3271C2.56877 9.52152 1.95222 10.1381 1.95222 10.8964V44.7735C1.95222 45.1836 1.61982 45.516 1.20969 45.516C0.799586 45.516 0.467165 45.1835 0.467165 44.7735V10.8964C0.467165 9.31967 1.75025 8.03658 3.32698 8.03658H11.8625H12.1125V7.78658V7.72047C12.1125 6.14375 13.3955 4.86066 14.9723 4.86066H19.3675H19.5739L19.613 4.65802C20.0556 2.36381 22.0793 0.625977 24.5002 0.625977C26.9211 0.625977 28.9447 2.36381 29.3873 4.65802L29.4264 4.86066H29.6328H34.028C35.6048 4.86066 36.8879 6.14375 36.8879 7.72047V7.78658ZM13.5974 10.9625V11.2125H13.8474H35.1529H35.1532H35.4032V10.9625V7.72047C35.4032 6.96215 34.7866 6.3456 34.0283 6.3456H28.735C28.3248 6.3456 27.9924 6.01311 27.9924 5.60307C27.9924 3.67729 26.4262 2.11091 24.5003 2.11091C22.5745 2.11091 21.0081 3.67728 21.0081 5.60307C21.0081 6.01318 20.6756 6.3456 20.2656 6.3456H14.9723C14.2139 6.3456 13.5974 6.96215 13.5974 7.72047V10.9625Z" fill="#F8C65D" stroke="#0F101B" stroke-width="0.5"/>
<path d="M23.7576 4.54429C23.7576 4.13418 24.0901 3.80176 24.5001 3.80176C24.9102 3.80176 25.2426 4.13426 25.2426 4.54429V5.60293C25.2426 6.01306 24.9102 6.34546 24.5001 6.34546C24.09 6.34546 23.7576 6.01295 23.7576 5.60293V4.54429Z" fill="#F8C65D" stroke="#0F101B" stroke-width="0.5"/>
<path d="M21.8528 18.0421L21.8528 18.0421L11.2661 39.2153L11.132 39.1482L11.2661 39.2153C10.5363 40.6747 11.1301 42.4564 12.5898 43.1862C14.0494 43.916 15.831 43.3223 16.5608 41.8625L16.6949 41.9295L16.5608 41.8624L20.4653 34.0537L20.5067 33.9708H20.5994H28.4008H28.4935L28.5349 34.0537L32.4393 41.8625L32.3051 41.9295L32.4393 41.8625C33.1607 43.3055 34.9632 43.9094 36.4103 43.1862L21.8528 18.0421ZM21.8528 18.0421C22.3575 17.0325 23.3715 16.4059 24.5001 16.4059C25.6288 16.4059 26.6427 17.0325 27.1474 18.0421L37.7339 39.2153M21.8528 18.0421L37.7339 39.2153M37.7339 39.2153C38.4637 40.6748 37.8699 42.4562 36.4104 43.1862L37.7339 39.2153ZM19.2324 32.7515L19.2324 32.7515C19.375 32.4661 19.6667 32.2857 19.9859 32.2857H29.014C29.3331 32.2857 29.6246 32.466 29.7675 32.7515C29.7675 32.7515 29.7675 32.7515 29.7675 32.7515L33.9463 41.1089C34.2479 41.7122 34.99 41.9808 35.6079 41.7023C36.2598 41.4086 36.5485 40.612 36.2267 39.9688C36.2267 39.9688 36.2267 39.9687 36.2267 39.9687L25.6402 18.7956C25.1781 17.8714 23.8216 17.8714 23.3595 18.7956L12.773 39.9688L12.9072 40.0358L12.773 39.9688C12.4586 40.5976 12.7144 41.3648 13.3432 41.6792L13.4103 41.545L13.3432 41.6792C13.972 41.9934 14.739 41.7379 15.0536 41.109L15.0536 41.1089L19.2324 32.7515Z" fill="#F8C65D" stroke="#0F101B" stroke-width="0.3"/>
<path d="M27.5609 28.5614L27.5609 28.5615C27.8021 29.0436 27.4352 29.636 26.8968 29.636H22.1033C21.5649 29.636 21.198 29.0436 21.4392 28.5614L21.4392 28.5614L23.8359 23.7679L23.8359 23.7678C24.1023 23.2349 24.8975 23.2349 25.164 23.7679C25.164 23.7679 25.1641 23.7679 25.1641 23.7679L27.5609 28.5614ZM23.4591 27.901L23.7091 27.96V28.1509H25.291H25.6955L25.5146 27.7891L24.7236 26.2074L24.5 25.7602L24.2764 26.2074L23.5547 27.6509H23.4591V27.9009V27.901Z" fill="#F8C65D" stroke="#0F101B" stroke-width="0.5"/>
<path d="M34.6702 18.3733V18.7233H35.0202H36.1451C36.5 18.7233 36.7876 19.0109 36.7876 19.3658C36.7876 19.7207 36.5 20.0083 36.1451 20.0083H35.0202H34.6702V20.3583V21.4832C34.6702 21.8381 34.3826 22.1257 34.0277 22.1257C33.6727 22.1257 33.3851 21.838 33.3851 21.4832V20.3583V20.0083H33.0351H31.9103C31.5553 20.0083 31.2677 19.7207 31.2677 19.3658C31.2677 19.0109 31.5554 18.7233 31.9103 18.7233H33.0351H33.3851V18.3733V17.2484C33.3851 16.8935 33.6728 16.6059 34.0277 16.6059C34.3826 16.6059 34.6702 16.8936 34.6702 17.2484V18.3733Z" fill="#F8C65D" stroke="#0F101B" stroke-width="0.7"/>
<path d="M16.0309 47.207H32.9694C33.3796 47.207 33.7119 47.5394 33.7119 47.9496C33.7119 48.3597 33.3795 48.6921 32.9694 48.6921H16.0309C15.6208 48.6921 15.2883 48.3596 15.2883 47.9496C15.2883 47.5395 15.6208 47.207 16.0309 47.207Z" fill="#F8C65D" stroke="#0F101B" stroke-width="0.5"/>
<path d="M16.0309 51.4414H25.5587C25.969 51.4414 26.3013 51.7738 26.3013 52.1839C26.3013 52.5941 25.9689 52.9265 25.5587 52.9265H16.0309C15.6208 52.9265 15.2883 52.594 15.2883 52.1839C15.2883 51.7738 15.6208 51.4414 16.0309 51.4414Z" fill="#F8C65D" stroke="#0F101B" stroke-width="0.5"/>
</svg>
