<svg width="74" height="61" viewBox="0 0 74 61" fill="none" xmlns="http://www.w3.org/2000/svg">
<path d="M44.2266 60.8164C35.2126 60.8164 26.8298 56.7946 21.1425 49.763C20.4174 49.8504 19.6803 49.8941 18.9336 49.8941C8.49362 49.8941 0 41.3358 0 30.8164C0 20.297 8.49362 11.7387 18.9336 11.7387C19.6803 11.7387 20.4174 11.7824 21.1425 11.8674C26.8298 4.83825 35.215 0.816406 44.2266 0.816406C60.6429 0.816406 74 14.2727 74 30.8164C74 47.3601 60.6429 60.8164 44.2266 60.8164ZM45.0938 46.2533V59.0106C49.4851 58.4329 53.32 53.4912 55.5988 46.2533H45.0938ZM32.8784 46.2533C35.2271 53.6125 39.1583 58.4208 43.3594 59.0082V46.2533H32.8784ZM23.125 49.4232C27.1044 54.0106 32.3509 57.1222 38.1442 58.4062C35.215 55.962 32.7267 51.7606 31.0598 46.2533H30.048C28.0077 47.7484 25.6615 48.8431 23.125 49.4232ZM57.4295 46.2533C55.8083 51.6417 53.3489 55.8965 50.3764 58.3819C57.5933 56.7484 63.7672 52.3018 67.6984 46.2533H57.4295ZM4.77435 40.6417C7.87936 45.1732 13.068 48.1465 18.9336 48.1465C24.7992 48.1465 29.9878 45.1732 33.0928 40.6441C29.1544 39.0567 26.495 35.1683 26.495 30.8164C26.495 26.4669 29.1544 22.5785 33.0928 20.9887C29.9878 16.4596 24.7992 13.4863 18.9336 13.4863C13.068 13.4863 7.87936 16.462 4.77194 20.9912C8.70801 22.581 11.3674 26.4669 11.3674 30.8164C11.3674 35.1635 8.70801 39.0518 4.77435 40.6417ZM57.9161 44.5057H68.7487C70.8588 40.6878 72.1115 36.3285 72.2536 31.6902H59.5421C59.477 36.3237 58.8989 40.6659 57.9161 44.5057ZM45.0938 44.5057H56.107C57.1284 40.6878 57.7378 36.3285 57.8053 31.6902H45.0938V44.5057ZM32.3654 44.5057H43.3594V31.6902H37.8479C37.6263 36.6052 35.5499 41.0421 32.31 44.3067C32.3292 44.3722 32.3461 44.4378 32.3654 44.5057ZM34.0227 22.5033C30.5804 23.7533 28.2294 27.0785 28.2294 30.8164C28.2294 34.5543 30.5804 37.8795 34.0227 39.1295C35.3668 36.6586 36.1328 33.8261 36.1328 30.8164C36.1328 27.8067 35.3668 24.9717 34.0227 22.5033ZM3.84453 22.5057C2.50039 24.9742 1.73438 27.8067 1.73438 30.8164C1.73438 33.8261 2.50039 36.6586 3.84453 39.1295C7.28437 37.8747 9.63301 34.5494 9.63301 30.8164C9.63301 27.081 7.28437 23.7557 3.84453 22.5057ZM59.5396 29.9426H72.2512C72.109 25.3043 70.8564 20.945 68.7463 17.1271H57.9137C58.8989 20.9693 59.477 25.3091 59.5396 29.9426ZM45.0938 29.9426H57.8053C57.7378 25.3043 57.1284 20.945 56.107 17.1271H45.0938V29.9426ZM37.8479 29.9426H43.3594V17.1271H32.3654C32.3485 17.1926 32.3292 17.2606 32.3124 17.3285C35.5499 20.5907 37.6263 25.0276 37.8479 29.9426ZM57.4295 15.3795H67.7008C63.7672 9.32854 57.5957 4.88194 50.3788 3.24845C53.3489 5.73631 55.8107 9.99116 57.4295 15.3795ZM45.0938 15.3795H55.5988C53.32 8.14165 49.4851 3.19747 45.0938 2.6198V15.3795ZM32.8784 15.3795H43.3594V2.62466C39.1583 3.20961 35.2271 8.01786 32.8784 15.3795ZM30.048 15.3795H31.0598C32.7291 9.87223 35.2174 5.67077 38.1442 3.2266C32.3509 4.51058 27.1044 7.62223 23.125 12.2096C25.6615 12.7897 28.0077 13.8844 30.048 15.3795ZM19.8008 40.5251H18.0664V21.1077H19.8008V40.5251Z" fill="#F8C65D"/>
</svg>
