<svg width="64" height="64" viewBox="0 0 64 64" fill="none" xmlns="http://www.w3.org/2000/svg">
<path d="M35.7802 60.9596L35.6984 60.97C35.1604 61.0372 34.7786 61.5281 34.8458 62.0662C34.908 62.5631 35.331 62.9265 35.819 62.9265C35.8597 62.9265 35.9008 62.9238 35.9421 62.9187L36.0322 62.9071C36.57 62.8376 36.9497 62.345 36.88 61.8073C36.8105 61.2694 36.3168 60.8889 35.7802 60.9596Z" fill="#F8C65D"/>
<path d="M35.7802 60.9596L35.6984 60.97C35.1604 61.0372 34.7786 61.5281 34.8458 62.0662C34.908 62.5631 35.331 62.9265 35.819 62.9265C35.8597 62.9265 35.9008 62.9238 35.9421 62.9187L36.0322 62.9071C36.57 62.8376 36.9497 62.345 36.88 61.8073C36.8105 61.2694 36.3168 60.8889 35.7802 60.9596Z" stroke="#0F101B"/>
<path d="M32.366 61.3L32.3678 61.2999L32.377 61.2999C32.8592 61.2999 33.2528 61.6877 33.2587 62.1713C33.2647 62.6583 32.8746 63.0581 32.3876 63.064C32.2586 63.0655 32.1294 63.0663 32.0001 63.0663C23.7205 63.0663 15.9368 59.8422 10.0821 53.9873L10.0114 54.0581L10.0821 53.9873C4.22734 48.1328 1.00332 40.3491 1.00332 32.0695C1.00332 23.7899 4.22734 16.0061 10.0821 10.1516L10.0114 10.0809L10.0821 10.1516C15.9368 4.29667 23.7205 1.07266 32.0001 1.07266C40.2797 1.07266 48.0635 4.29667 53.9181 10.1516L53.9888 10.0809L53.9181 10.1516C59.7729 16.0061 62.9969 23.7899 62.9969 32.0695C62.9969 36.792 61.9621 41.3262 59.9214 45.5467L60.0114 45.5903L59.9214 45.5467C59.7094 45.9853 59.1816 46.1687 58.7434 45.9568L58.6999 46.0469L58.7434 45.9568C58.3048 45.7448 58.1211 45.2173 58.3333 44.7789L58.3333 44.7789C60.2573 40.7996 61.233 36.5234 61.233 32.0695C61.233 15.9503 48.1193 2.83661 32.0001 2.83661C15.881 2.83661 2.76728 15.9503 2.76728 32.0695C2.76728 48.1886 15.881 61.3023 32.0001 61.3022C32.1222 61.3022 32.2441 61.3014 32.366 61.3Z" fill="#F8C65D" stroke="#0F101B" stroke-width="0.2"/>
<path d="M38.3818 61.5451L38.3818 61.545C38.1696 60.7548 38.6377 59.9419 39.4281 59.7293L39.4279 59.7293L39.5582 60.2121L39.4284 59.7292L39.5309 59.7015C40.3186 59.4873 41.1348 59.9515 41.3499 60.7421L38.3818 61.5451ZM38.3818 61.5451C38.5598 62.2074 39.1588 62.6427 39.8124 62.6427C39.9406 62.6427 40.0698 62.6259 40.1971 62.5919L40.1971 62.5919M38.3818 61.5451L40.1971 62.5919M40.1971 62.5919L40.199 62.5914M40.1971 62.5919L40.199 62.5914M40.199 62.5914L40.309 62.5615L40.3095 62.5614M40.199 62.5914L40.3095 62.5614M40.3095 62.5614C41.099 62.3462 41.5649 61.5319 41.35 60.7422L40.3095 62.5614Z" fill="#F8C65D" stroke="#0F101B"/>
<path d="M50.7373 41.9826L50.7363 41.9816C50.0562 41.3015 49.152 40.927 48.1901 40.927C47.5652 40.927 46.9645 41.0851 46.4338 41.3825L44.635 39.5837C48.0124 33.9284 47.2689 26.4781 42.4038 21.6131C36.6603 15.8699 27.3154 15.8699 21.5722 21.6131C18.7901 24.3952 17.2578 28.0943 17.2578 32.0289C17.2578 35.9635 18.7901 39.6624 21.5722 42.4445C24.3543 45.2267 28.0534 46.7591 31.9879 46.7591C34.6922 46.7591 37.2854 46.035 39.5458 44.6791L41.3414 46.4747C41.0442 47.0055 40.8859 47.6062 40.8859 48.2312C40.8859 49.1928 41.2605 50.097 41.9397 50.7763L53.2464 62.112C53.9484 62.8139 54.8704 63.1648 55.7925 63.1648C56.7146 63.1648 57.6365 62.8138 58.3385 62.112L62.0419 58.4086C63.4457 57.0047 63.4458 54.7205 62.0429 53.3172L50.7373 41.9826ZM39.1871 42.5757C39.149 42.5979 39.1118 42.623 39.0763 42.6508C36.9957 44.0456 34.5493 44.795 31.988 44.795C28.578 44.795 25.3723 43.4669 22.961 41.0556C20.5499 38.6445 19.222 35.4386 19.222 32.0288C19.222 28.6189 20.5498 25.4131 22.961 23.002C25.4498 20.5131 28.7188 19.2688 31.988 19.2688C35.257 19.2688 38.5262 20.5131 41.0149 23.002C45.4021 27.3892 45.9225 34.2016 42.5758 39.1638C42.5718 39.1696 42.5677 39.1757 42.5638 39.1817C42.1163 39.8428 41.6002 40.4707 41.015 41.0558C40.4473 41.6236 39.8352 42.1314 39.1871 42.5757ZM41.1833 43.5386C41.6068 43.199 42.014 42.8341 42.4037 42.4445C42.795 42.0533 43.1591 41.6457 43.4971 41.2234L44.9498 42.676L42.635 44.9907L41.1833 43.5386ZM60.6532 57.0197L56.9497 60.7231C56.3116 61.3615 55.2734 61.3613 54.6362 60.7241L43.3294 49.3883C43.0203 49.0793 42.85 48.6682 42.85 48.2312C42.85 47.794 43.0203 47.3828 43.3294 47.0739L47.0329 43.3705C47.3419 43.0615 47.7528 42.8912 48.19 42.8912C48.627 42.8912 49.0378 43.0612 49.3464 43.3698L60.6532 54.7053C61.2914 55.3433 61.2914 56.3817 60.6532 57.0197Z" fill="#F8C65D"/>
<path d="M50.7373 41.9826L50.7363 41.9816C50.0562 41.3015 49.152 40.927 48.1901 40.927C47.5652 40.927 46.9645 41.0851 46.4338 41.3825L44.635 39.5837C48.0124 33.9284 47.2689 26.4781 42.4038 21.6131C36.6603 15.8699 27.3154 15.8699 21.5722 21.6131C18.7901 24.3952 17.2578 28.0943 17.2578 32.0289C17.2578 35.9635 18.7901 39.6624 21.5722 42.4445C24.3543 45.2267 28.0534 46.7591 31.9879 46.7591C34.6922 46.7591 37.2854 46.035 39.5458 44.6791L41.3414 46.4747C41.0442 47.0055 40.8859 47.6062 40.8859 48.2312C40.8859 49.1928 41.2605 50.097 41.9397 50.7763L53.2464 62.112C53.9484 62.8139 54.8704 63.1648 55.7925 63.1648C56.7146 63.1648 57.6365 62.8138 58.3385 62.112L62.0419 58.4086C63.4457 57.0047 63.4458 54.7205 62.0429 53.3172L50.7373 41.9826ZM39.1871 42.5757C39.149 42.5979 39.1118 42.623 39.0763 42.6508C36.9957 44.0456 34.5493 44.795 31.988 44.795C28.578 44.795 25.3723 43.4669 22.961 41.0556C20.5499 38.6445 19.222 35.4386 19.222 32.0288C19.222 28.6189 20.5498 25.4131 22.961 23.002C25.4498 20.5131 28.7188 19.2688 31.988 19.2688C35.257 19.2688 38.5262 20.5131 41.0149 23.002C45.4021 27.3892 45.9225 34.2016 42.5758 39.1638C42.5718 39.1696 42.5677 39.1757 42.5638 39.1817C42.1163 39.8428 41.6002 40.4707 41.015 41.0558C40.4473 41.6236 39.8352 42.1314 39.1871 42.5757ZM41.1833 43.5386C41.6068 43.199 42.014 42.8341 42.4037 42.4445C42.795 42.0533 43.1591 41.6457 43.4971 41.2234L44.9498 42.676L42.635 44.9907L41.1833 43.5386ZM60.6532 57.0197L56.9497 60.7231C56.3116 61.3615 55.2734 61.3613 54.6362 60.7241L43.3294 49.3883C43.0203 49.0793 42.85 48.6682 42.85 48.2312C42.85 47.794 43.0203 47.3828 43.3294 47.0739L47.0329 43.3705C47.3419 43.0615 47.7528 42.8912 48.19 42.8912C48.627 42.8912 49.0378 43.0612 49.3464 43.3698L60.6532 54.7053C61.2914 55.3433 61.2914 56.3817 60.6532 57.0197Z" stroke="#0F101B"/>
<path d="M36.3608 27.6563L36.3607 27.6561C33.9514 25.2466 30.0259 25.2465 27.6162 27.6562C25.2067 30.0657 25.2066 33.9912 27.6161 36.4008C27.6161 36.4009 27.6162 36.4009 27.6162 36.4009M36.3608 27.6563L31.9884 40.1711C29.8969 40.1711 27.8143 39.3764 26.2273 37.7897L27.6162 36.4009M36.3608 27.6563C38.7704 30.0657 38.7704 33.9911 36.3609 36.4007C35.1565 37.6048 33.5772 38.2079 31.9886 38.2079L36.3608 27.6563ZM27.6162 36.4009C28.8197 37.6043 30.3998 38.2076 31.9885 38.2079L27.6162 36.4009ZM23.3988 23.4389L23.3988 23.4389C18.6613 28.1765 18.6613 35.8805 23.3988 40.6181L23.3989 40.6182C25.7685 42.9875 28.8829 44.1711 31.9884 44.1711C35.0939 44.1711 38.2083 42.9875 40.5779 40.6182L40.578 40.6181C45.3155 35.8805 45.3155 28.1765 40.578 23.4389L40.5779 23.4388C35.8402 18.7014 28.1364 18.7013 23.3988 23.4389Z" fill="#F8C65D" stroke="#0F101B" stroke-width="4"/>
<path d="M45.6392 60.5794L45.6389 60.5796C45.4331 60.6784 45.2143 60.7258 44.9983 60.7258C44.4474 60.7258 43.9167 60.4164 43.6615 59.8847L45.6392 60.5794ZM45.6392 60.5794L45.7382 60.5318L45.7394 60.5312M45.6392 60.5794L45.7394 60.5312M45.7394 60.5312C46.4759 60.1746 46.7842 59.2886 46.4276 58.5518M45.7394 60.5312L44.3558 57.9077M44.3558 57.9077L44.4481 57.8631C44.4482 57.863 44.4483 57.863 44.4484 57.863C45.1854 57.5065 46.0714 57.815 46.4276 58.5518M44.3558 57.9077C43.6186 58.262 43.3073 59.1468 43.6615 59.8846L44.3558 57.9077ZM46.4276 58.5518L45.9775 58.7694L46.4275 58.5515C46.4275 58.5516 46.4276 58.5517 46.4276 58.5518Z" fill="#F8C65D" stroke="#0F101B"/>
</svg>
