<svg width="61" height="52" viewBox="0 0 61 52" fill="none" xmlns="http://www.w3.org/2000/svg">
<path d="M58.7615 12.5473L52.2289 2.9409C51.2044 1.43339 48.9735 0.25293 47.1506 0.25293H12.7009C10.9127 0.25293 8.57129 1.29104 7.37096 2.61647L2.98241 7.46128C2.71628 7.755 2.73877 8.2088 3.03265 8.47526C3.32637 8.74107 3.77984 8.71858 4.0463 8.42502L8.43485 3.58022C9.36362 2.55474 11.3172 1.68869 12.7009 1.68869H47.1506C48.5009 1.68869 50.283 2.63174 51.0424 3.74817L57.5746 13.3545C58.3822 14.5424 59.0646 16.7593 59.0646 18.1959V48.2983C59.0646 49.4856 58.0987 50.4515 56.9115 50.4515H4.0885C2.90114 50.4515 1.93543 49.4856 1.93543 48.2983V16.3912C1.93543 15.2042 2.90114 14.2382 4.0885 14.2382H50.3087C50.7051 14.2382 51.0264 13.9169 51.0264 13.5204C51.0264 13.1242 50.7051 12.8027 50.3087 12.8027H4.0885C2.10963 12.8027 0.5 14.4127 0.5 16.3912V48.2983C0.5 50.2771 2.10963 51.8868 4.0885 51.8868H56.9115C58.8904 51.8868 60.4998 50.277 60.4998 48.2983V18.1959C60.5 16.4623 59.7366 13.9809 58.7615 12.5473Z" fill="#F8C65D"/>
<path d="M40.769 27.0734C40.7875 26.5637 40.9502 22.0859 40.9502 21.8017C40.9502 20.209 39.4601 18.9131 37.6282 18.9131H25.3997C25.0032 18.9131 24.6819 19.2344 24.6819 19.6309C24.6819 20.0274 25.0032 20.3485 25.3997 20.3485H37.6282C38.6686 20.3485 39.515 21.0005 39.515 21.8018C39.5146 22.0041 39.4069 25.0341 39.334 27.0474C39.334 31.1981 36.5128 34.7501 32.4731 35.6858C32.4521 35.6905 32.0526 35.7467 31.9333 36.2341C31.6274 37.4816 30.8812 41.6835 32.1278 42.9306C32.9402 43.7438 35.4006 43.6059 36.4656 43.5026C37.2522 43.5202 37.8869 44.1651 37.8869 44.9556C37.8869 45.757 37.2351 46.4086 36.4339 46.4086H24.4954C23.6942 46.4086 23.0424 45.757 23.0424 44.9556C23.0424 44.1652 23.6771 43.5203 24.464 43.5026C25.5279 43.6055 27.9888 43.7434 28.8012 42.9306C30.048 41.6835 29.1839 37.5046 28.9956 36.2341C28.943 35.8785 28.4694 35.6887 28.4557 35.6858C24.4162 34.7501 21.5951 31.1981 21.5945 27.0213C21.5945 27.0213 21.535 25.3918 21.4845 23.9467C21.4705 23.5505 21.1405 23.2422 20.7419 23.2548C20.3457 23.2686 20.0359 23.6011 20.05 23.9973C20.1003 25.4316 20.1592 27.0479 20.1597 27.0473C20.1597 31.7133 23.2292 35.728 27.6802 36.9687C28.1257 39.2698 28.1837 41.519 27.7951 41.9079C27.5045 42.131 25.9661 42.2093 24.5661 42.0708L24.4955 42.0673C22.9032 42.0673 21.6073 43.3632 21.6073 44.9556C21.6073 46.5483 22.9032 47.8439 24.4955 47.8439H36.4341C38.0268 47.8439 39.3225 46.548 39.3225 44.9556C39.3225 43.3632 38.0267 42.0673 36.4341 42.0673L36.3635 42.0708C34.9645 42.2084 33.4247 42.1307 33.1428 41.9156C32.7469 41.5196 32.8042 39.2702 33.2488 36.9687C37.7001 35.7286 40.7695 31.7141 40.769 27.0734Z" fill="#F8C65D"/>
</svg>
