<svg width="72" height="65" viewBox="0 0 72 65" fill="none" xmlns="http://www.w3.org/2000/svg">
<mask id="path-1-inside-1_43_251" fill="white">
<path d="M54.4277 27.3201C57.0785 27.3201 59.2276 29.4597 59.2276 32.0988C59.2276 34.7378 57.0785 36.8774 54.4277 36.8774C51.7769 36.8774 49.6278 34.7378 49.6278 32.0988C49.6278 29.4597 51.7769 27.3201 54.4277 27.3201ZM48.5135 39.2099C51.1643 39.2099 53.3134 41.3495 53.3134 43.9885C53.3134 46.6276 51.1643 48.7672 48.5135 48.7672C45.8627 48.7672 43.7136 46.6276 43.7136 43.9885C43.7136 41.3495 45.8627 39.2099 48.5135 39.2099ZM40.8565 49.649H35.4566H30.0567C26.771 49.649 24.7139 52.3512 24.7139 55.7361V64.0703H28.3995V56.7032C28.3995 56.3619 28.6853 56.1343 28.971 56.1343C29.3138 56.1343 29.5424 56.3619 29.5424 56.7032V64.0419H41.3993V56.7032C41.3993 56.3619 41.6851 56.1343 41.9708 56.1343C42.3136 56.1343 42.5422 56.4188 42.5422 56.7032V64.0419H46.2278V55.7645C46.285 52.3512 44.1993 49.649 40.8565 49.649ZM42.1993 27.3201C44.8501 27.3201 46.9993 29.4597 46.9993 32.0988C46.9993 34.7378 44.8501 36.8774 42.1993 36.8774C39.5485 36.8774 37.3994 34.7378 37.3994 32.0988C37.3994 29.4597 39.5485 27.3201 42.1993 27.3201ZM56.3134 43.9885C56.3134 46.6339 58.4562 48.7672 61.1133 48.7672C63.7704 48.7672 65.9132 46.6339 65.9132 43.9885C65.9132 41.3432 63.7704 39.2099 61.1133 39.2099C58.4562 39.2099 56.3134 41.3432 56.3134 43.9885ZM55.8277 49.649C52.542 49.649 50.4849 52.3512 50.4849 55.7361V64.0703H54.1706V56.7032C54.1706 56.3619 54.4563 56.1343 54.742 56.1343C55.0848 56.1343 55.3134 56.3619 55.3134 56.7032V64.0419H67.1704V56.7032C67.1704 56.3619 67.4561 56.1343 67.7418 56.1343C68.0846 56.1343 68.3132 56.4188 68.3132 56.7032V64.0419H71.9989V55.7645C72.056 52.3228 69.9703 49.6205 66.6561 49.6205H61.2562H55.8277V49.649ZM10.7998 39.2099C13.4506 39.2099 15.5998 41.3495 15.5998 43.9885C15.5998 46.6276 13.4506 48.7672 10.7998 48.7672C8.14901 48.7672 5.9999 46.6276 5.9999 43.9885C5.9999 41.3495 8.14901 39.2099 10.7998 39.2099ZM3.65708 64.0419V56.7032C3.65708 56.3619 3.94279 56.1343 4.2285 56.1343C4.57136 56.1343 4.79992 56.3619 4.79992 56.7032V64.0419H16.6569V56.7032C16.6569 56.3619 16.9426 56.1343 17.2283 56.1343C17.5711 56.1343 17.7997 56.4188 17.7997 56.7032V64.0419H21.4854V55.7645C21.5425 52.3228 19.4568 49.6205 16.1426 49.6205H10.7427H5.34277C2.05711 49.6205 0 52.3228 0 55.7076V64.0419H3.65708ZM30.6567 43.9885C30.6567 46.6339 32.7995 48.7672 35.4566 48.7672C38.1137 48.7672 40.2565 46.6339 40.2565 43.9885C40.2565 41.3432 38.1137 39.2099 35.4566 39.2099C32.7995 39.2099 30.6567 41.3432 30.6567 43.9885ZM16.9426 27.3201C19.5934 27.3201 21.7425 29.4597 21.7425 32.0988C21.7425 34.7378 19.5934 36.8774 16.9426 36.8774C14.2918 36.8774 12.1427 34.7378 12.1427 32.0988C12.1427 29.4597 14.2918 27.3201 16.9426 27.3201ZM29.9138 27.3201C32.5646 27.3201 34.7137 29.4597 34.7137 32.0988C34.7137 34.7378 32.5646 36.8774 29.9138 36.8774C27.263 36.8774 25.1139 34.7378 25.1139 32.0988C25.1139 29.4597 27.263 27.3201 29.9138 27.3201ZM23.4568 39.2099C26.1076 39.2099 28.2567 41.3495 28.2567 43.9885C28.2567 46.6276 26.1076 48.7672 23.4568 48.7672C20.806 48.7672 18.6568 46.6276 18.6568 43.9885C18.6568 41.3495 20.806 39.2099 23.4568 39.2099ZM42.5322 9.4877C42.5322 13.0922 39.6051 15.9602 36.0309 15.9602C32.4566 15.9602 29.5295 13.0615 29.5295 9.4877C29.5295 5.88322 32.4566 3.01517 36.0309 3.01517C39.6051 3.01517 42.5322 5.89858 42.5322 9.4877ZM55.4731 0.0703125V18.8436H16.5269V0.0703125H55.4731ZM49.7575 1.95675H22.2116C21.7034 3.82782 20.3014 5.36183 18.4063 5.83714V13.0305C20.286 13.5368 21.7342 15.0705 22.2116 16.6349H49.7883C50.2966 15.0705 51.7295 13.506 53.6243 13.0305V5.83742C51.714 5.36183 50.2043 3.82811 49.7575 1.95675Z"/>
</mask>
<path d="M54.4277 27.3201C57.0785 27.3201 59.2276 29.4597 59.2276 32.0988C59.2276 34.7378 57.0785 36.8774 54.4277 36.8774C51.7769 36.8774 49.6278 34.7378 49.6278 32.0988C49.6278 29.4597 51.7769 27.3201 54.4277 27.3201ZM48.5135 39.2099C51.1643 39.2099 53.3134 41.3495 53.3134 43.9885C53.3134 46.6276 51.1643 48.7672 48.5135 48.7672C45.8627 48.7672 43.7136 46.6276 43.7136 43.9885C43.7136 41.3495 45.8627 39.2099 48.5135 39.2099ZM40.8565 49.649H35.4566H30.0567C26.771 49.649 24.7139 52.3512 24.7139 55.7361V64.0703H28.3995V56.7032C28.3995 56.3619 28.6853 56.1343 28.971 56.1343C29.3138 56.1343 29.5424 56.3619 29.5424 56.7032V64.0419H41.3993V56.7032C41.3993 56.3619 41.6851 56.1343 41.9708 56.1343C42.3136 56.1343 42.5422 56.4188 42.5422 56.7032V64.0419H46.2278V55.7645C46.285 52.3512 44.1993 49.649 40.8565 49.649ZM42.1993 27.3201C44.8501 27.3201 46.9993 29.4597 46.9993 32.0988C46.9993 34.7378 44.8501 36.8774 42.1993 36.8774C39.5485 36.8774 37.3994 34.7378 37.3994 32.0988C37.3994 29.4597 39.5485 27.3201 42.1993 27.3201ZM56.3134 43.9885C56.3134 46.6339 58.4562 48.7672 61.1133 48.7672C63.7704 48.7672 65.9132 46.6339 65.9132 43.9885C65.9132 41.3432 63.7704 39.2099 61.1133 39.2099C58.4562 39.2099 56.3134 41.3432 56.3134 43.9885ZM55.8277 49.649C52.542 49.649 50.4849 52.3512 50.4849 55.7361V64.0703H54.1706V56.7032C54.1706 56.3619 54.4563 56.1343 54.742 56.1343C55.0848 56.1343 55.3134 56.3619 55.3134 56.7032V64.0419H67.1704V56.7032C67.1704 56.3619 67.4561 56.1343 67.7418 56.1343C68.0846 56.1343 68.3132 56.4188 68.3132 56.7032V64.0419H71.9989V55.7645C72.056 52.3228 69.9703 49.6205 66.6561 49.6205H61.2562H55.8277V49.649ZM10.7998 39.2099C13.4506 39.2099 15.5998 41.3495 15.5998 43.9885C15.5998 46.6276 13.4506 48.7672 10.7998 48.7672C8.14901 48.7672 5.9999 46.6276 5.9999 43.9885C5.9999 41.3495 8.14901 39.2099 10.7998 39.2099ZM3.65708 64.0419V56.7032C3.65708 56.3619 3.94279 56.1343 4.2285 56.1343C4.57136 56.1343 4.79992 56.3619 4.79992 56.7032V64.0419H16.6569V56.7032C16.6569 56.3619 16.9426 56.1343 17.2283 56.1343C17.5711 56.1343 17.7997 56.4188 17.7997 56.7032V64.0419H21.4854V55.7645C21.5425 52.3228 19.4568 49.6205 16.1426 49.6205H10.7427H5.34277C2.05711 49.6205 0 52.3228 0 55.7076V64.0419H3.65708ZM30.6567 43.9885C30.6567 46.6339 32.7995 48.7672 35.4566 48.7672C38.1137 48.7672 40.2565 46.6339 40.2565 43.9885C40.2565 41.3432 38.1137 39.2099 35.4566 39.2099C32.7995 39.2099 30.6567 41.3432 30.6567 43.9885ZM16.9426 27.3201C19.5934 27.3201 21.7425 29.4597 21.7425 32.0988C21.7425 34.7378 19.5934 36.8774 16.9426 36.8774C14.2918 36.8774 12.1427 34.7378 12.1427 32.0988C12.1427 29.4597 14.2918 27.3201 16.9426 27.3201ZM29.9138 27.3201C32.5646 27.3201 34.7137 29.4597 34.7137 32.0988C34.7137 34.7378 32.5646 36.8774 29.9138 36.8774C27.263 36.8774 25.1139 34.7378 25.1139 32.0988C25.1139 29.4597 27.263 27.3201 29.9138 27.3201ZM23.4568 39.2099C26.1076 39.2099 28.2567 41.3495 28.2567 43.9885C28.2567 46.6276 26.1076 48.7672 23.4568 48.7672C20.806 48.7672 18.6568 46.6276 18.6568 43.9885C18.6568 41.3495 20.806 39.2099 23.4568 39.2099ZM42.5322 9.4877C42.5322 13.0922 39.6051 15.9602 36.0309 15.9602C32.4566 15.9602 29.5295 13.0615 29.5295 9.4877C29.5295 5.88322 32.4566 3.01517 36.0309 3.01517C39.6051 3.01517 42.5322 5.89858 42.5322 9.4877ZM55.4731 0.0703125V18.8436H16.5269V0.0703125H55.4731ZM49.7575 1.95675H22.2116C21.7034 3.82782 20.3014 5.36183 18.4063 5.83714V13.0305C20.286 13.5368 21.7342 15.0705 22.2116 16.6349H49.7883C50.2966 15.0705 51.7295 13.506 53.6243 13.0305V5.83742C51.714 5.36183 50.2043 3.82811 49.7575 1.95675Z" fill="#F8C65D" stroke="#030410" mask="url(#path-1-inside-1_43_251)"/>
</svg>
