<svg width="68" height="54" viewBox="0 0 68 54" fill="none" xmlns="http://www.w3.org/2000/svg">
<path d="M37.4977 24.4837C40.0628 24.4837 42.1614 22.385 42.1614 19.82C42.1614 17.2549 40.0628 15.1562 37.4977 15.1562C34.9327 15.1562 32.834 17.2549 32.834 19.82C32.834 22.385 34.9327 24.4837 37.4977 24.4837ZM37.4977 17.4881C38.7802 17.4881 39.8296 18.5374 39.8296 19.82C39.8296 21.1025 38.7802 22.1518 37.4977 22.1518C36.2152 22.1518 35.1658 21.1025 35.1658 19.82C35.1658 18.5374 36.2152 17.4881 37.4977 17.4881Z" fill="#F8C65D"/>
<path d="M24.6725 24.4837C27.2376 24.4837 29.3362 22.385 29.3362 19.82C29.3362 17.2549 27.2376 15.1562 24.6725 15.1562C22.1075 15.1562 20.0088 17.2549 20.0088 19.82C20.0088 22.385 22.1075 24.4837 24.6725 24.4837ZM24.6725 17.4881C25.955 17.4881 27.0044 18.5374 27.0044 19.82C27.0044 21.1025 25.955 22.1518 24.6725 22.1518C23.39 22.1518 22.3407 21.1025 22.3407 19.82C22.3407 18.5374 23.39 17.4881 24.6725 17.4881Z" fill="#F8C65D"/>
<path d="M11.8473 15.1562C9.28227 15.1562 7.18359 17.2549 7.18359 19.82C7.18359 22.385 9.28227 24.4837 11.8473 24.4837C14.4124 24.4837 16.511 22.385 16.511 19.82C16.511 17.2549 14.4124 15.1562 11.8473 15.1562ZM11.8473 22.1518C10.5648 22.1518 9.51546 21.1025 9.51546 19.82C9.51546 18.5374 10.5648 17.4881 11.8473 17.4881C13.1298 17.4881 14.1792 18.5374 14.1792 19.82C14.1792 21.1025 13.1298 22.1518 11.8473 22.1518Z" fill="#F8C65D"/>
<path d="M66.9958 0.116594C66.5294 4.4303e-07 66.0631 0.116593 65.7133 0.466372L55.8029 12.3589C54.9867 13.4082 53.5876 13.9912 52.3051 13.9912H49.1571V6.99558C49.1571 3.14801 46.0091 0 42.1615 0H7.18357C3.336 0 0.187988 3.14801 0.187988 6.99558V52.4669C0.187988 52.9333 0.537768 53.3996 1.00414 53.5162C1.12073 53.6328 1.23733 53.6328 1.35392 53.6328C1.7037 53.6328 2.05348 53.5162 2.28666 53.1664L12.1971 41.2739C13.1298 40.2246 14.4123 39.6416 15.8115 39.6416H18.8429V46.6372C18.8429 50.4848 21.9909 53.6328 25.8385 53.6328H60.8164C64.664 53.6328 67.812 50.4848 67.812 46.6372V1.16593C67.812 0.699558 67.4622 0.233187 66.9958 0.116594ZM10.3316 39.8748L2.51985 49.2023V6.99558C2.51985 4.43054 4.61852 2.33186 7.18357 2.33186H42.1615C44.7265 2.33186 46.8252 4.43054 46.8252 6.99558V32.6461C46.8252 35.2111 44.7265 37.3098 42.1615 37.3098H15.6949C13.7128 37.3098 11.7307 38.2425 10.3316 39.8748ZM65.4801 46.6372C65.4801 49.2023 63.3814 51.301 60.8164 51.301H25.8385C23.2734 51.301 21.1747 49.2023 21.1747 46.6372V39.6416H42.1615C46.0091 39.6416 49.1571 36.4936 49.1571 32.6461V16.323H52.3051C54.4038 16.323 56.3858 15.3903 57.6684 13.758L65.4801 4.31394V46.6372Z" fill="#F8C65D"/>
<path d="M51.4888 33.8122C51.4888 36.3772 53.5874 38.4759 56.1525 38.4759C58.7175 38.4759 60.8162 36.3772 60.8162 33.8122C60.8162 31.2471 58.7175 29.1484 56.1525 29.1484C53.5874 29.1484 51.4888 31.2471 51.4888 33.8122ZM58.4844 33.8122C58.4844 35.0947 57.435 36.144 56.1525 36.144C54.87 36.144 53.8206 35.0947 53.8206 33.8122C53.8206 32.5296 54.87 31.4803 56.1525 31.4803C57.435 31.4803 58.4844 32.5296 58.4844 33.8122Z" fill="#F8C65D"/>
</svg>
