<svg width="55" height="65" viewBox="0 0 55 65" fill="none" xmlns="http://www.w3.org/2000/svg">
<path d="M52.3218 62.3001H50.6038V61.1547H51.7491V61.4339H52.3218V62.3001ZM49.4584 62.3001H48.3131V61.1547H49.4584V62.3001ZM47.1677 62.3001H46.0224V61.1547H47.1677V62.3001ZM44.877 62.3001H43.7317V61.1547H44.877V62.3001ZM42.5863 62.3001H41.4409V61.1547H42.5863V62.3001ZM40.2956 62.3001H39.1502V61.1547H40.2956V62.3001ZM38.0049 62.3001H36.8595V61.1547H38.0049V62.3001ZM35.7142 62.3001H34.5688V61.1547H35.7142V62.3001ZM33.4235 62.3001H32.2781V61.1547H33.4235V62.3001ZM31.1328 62.3001H29.9874V61.1547H31.1328V62.3001ZM28.8421 62.3001H27.6967V61.1547H28.8421V62.3001ZM26.5514 62.3001H25.406V61.1547H26.5514V62.3001ZM24.2607 62.3001H23.1153V61.1547H24.2607V62.3001ZM21.97 62.3001H20.8246V61.1547H21.97V62.3001ZM19.6793 62.3001H18.5339V61.1547H19.6793V62.3001ZM17.3886 62.3001H16.2432V61.1547H17.3886V62.3001ZM15.0979 62.3001H13.9525V61.1547H15.0979V62.3001ZM12.8072 62.3001H11.6618V61.1547H12.8072V62.3001ZM10.5165 62.3001H9.37112V61.1547H10.5165V62.3001ZM8.22577 62.3001H7.08042V61.1547H8.22577V62.3001ZM5.93507 62.3001H4.78972V61.1547H5.93507V62.3001ZM3.64437 62.3001H2.67798V60.9757H3.82333V61.7274H3.64437V62.3001ZM52.3218 60.2885H51.1764V59.1432H52.3218V60.2885ZM3.82333 59.8304H2.67798V58.685H3.82333V59.8304ZM52.3218 57.9978H51.1764V56.8525H52.3218V57.9978ZM3.82333 57.5397H2.67798V56.3943H3.82333V57.5397ZM52.3218 55.7071H51.1764V54.5618H52.3218V55.7071ZM3.82333 55.249H2.67798V54.1036H3.82333V55.249ZM52.3218 53.4164H51.1764V52.2711H52.3218V53.4164ZM3.82333 52.9583H2.67798V51.8129H3.82333V52.9583ZM52.3218 51.1257H51.1764V49.9804H52.3218V51.1257ZM3.82333 50.6676H2.67798V49.5222H3.82333V50.6676ZM52.3218 48.835H51.1764V47.6897H52.3218V48.835ZM3.82333 48.3769H2.67798V47.2315H3.82333V48.3769ZM52.3218 46.5443H51.1764V45.399H52.3218V46.5443ZM3.82333 46.0862H2.67798V44.9408H3.82333V46.0862ZM52.3218 44.2536H51.1764V43.1083H52.3218V44.2536ZM3.82333 43.7955H2.67798V42.6501H3.82333V43.7955ZM52.3218 41.9629H51.1764V40.8176H52.3218V41.9629ZM3.82333 41.5048H2.67798V40.3594H3.82333V41.5048ZM52.3218 39.6722H51.1764V38.5269H52.3218V39.6722ZM3.82333 39.2141H2.67798V38.0687H3.82333V39.2141ZM52.3218 37.3815H51.1764V36.2362H52.3218V37.3815ZM3.82333 36.9234H2.67798V35.778H3.82333V36.9234ZM52.3218 35.0908H51.1764V33.9455H52.3218V35.0908ZM3.82333 34.6327H2.67798V33.4873H3.82333V34.6327ZM52.3218 32.8001H51.1764V31.6548H52.3218V32.8001ZM3.82333 32.342H2.67798V31.1966H3.82333V32.342ZM52.3218 30.5094H51.1764V29.3641H52.3218V30.5094ZM3.82333 30.0513H2.67798V28.9059H3.82333V30.0513ZM52.3218 28.2187H51.1764V27.0734H52.3218V28.2187ZM3.82333 27.7606H2.67798V26.6152H3.82333V27.7606ZM52.3218 25.928H51.1764V24.7827H52.3218V25.928ZM3.82333 25.4699H2.67798V24.3245H3.82333V25.4699ZM52.3218 23.6373H51.1764V22.492H52.3218V23.6373ZM3.82333 23.1792H2.67798V22.0338H3.82333V23.1792ZM52.3218 21.3466H51.1764V20.2013H52.3218V21.3466ZM3.82333 20.8885H2.67798V19.7431H3.82333V20.8885ZM52.3218 19.0559H51.1764V17.9106H52.3218V19.0559ZM3.82333 18.5978H2.67798V17.4524H3.82333V18.5978ZM52.3218 16.7652H51.1764V15.6198H52.3218V16.7652ZM3.82333 16.3071H2.67798V15.1617H3.82333V16.3071ZM52.3218 14.4745H51.1764V13.3291H52.3218V14.4745ZM3.82333 14.0164H2.67798V12.871H3.82333V14.0164ZM52.3218 12.1838H51.1764V11.0384H52.3218V12.1838ZM3.82333 11.7257H2.67798V10.5803H3.82333V11.7257ZM52.3218 9.89309H51.1764V8.74774H52.3218V9.89309ZM3.82333 9.43495H2.67798V8.2896H3.82333V9.43495ZM52.3218 7.60239H51.1764V6.45704H52.3218V7.60239ZM3.82333 7.14425H2.67798V5.9989H3.82333V7.14425ZM52.3218 5.31169H51.1764V4.16634H52.3218V5.31169ZM3.82333 4.85355H2.67798V3.7082H3.82333V4.85355ZM52.3218 3.02099H51.1764V2.41968H51.2051V1.847H52.3218V3.02099ZM50.0597 2.98519H48.9144V1.83984H50.0597V2.98519ZM47.769 2.98519H46.6237V1.83984H47.769V2.98519ZM45.4783 2.98519H44.333V1.83984H45.4783V2.98519ZM43.1876 2.98519H42.0423V1.83984H43.1876V2.98519ZM40.8969 2.98519H39.7516V1.83984H40.8969V2.98519ZM38.6062 2.98519H37.4609V1.83984H38.6062V2.98519ZM36.3155 2.98519H35.1702V1.83984H36.3155V2.98519ZM34.0248 2.98519H32.8795V1.83984H34.0248V2.98519ZM31.7341 2.98519H30.5888V1.83984H31.7341V2.98519ZM29.4434 2.98519H28.298V1.83984H29.4434V2.98519ZM27.1527 2.98519H26.0073V1.83984H27.1527V2.98519ZM24.862 2.98519H23.7166V1.83984H24.862V2.98519ZM22.5713 2.98519H21.4259V1.83984H22.5713V2.98519ZM20.2806 2.98519H19.1352V1.83984H20.2806V2.98519ZM17.9899 2.98519H16.8445V1.83984H17.9899V2.98519ZM15.6992 2.98519H14.5538V1.83984H15.6992V2.98519ZM13.4085 2.98519H12.2631V1.83984H13.4085V2.98519ZM11.1178 2.98519H9.97243V1.83984H11.1178V2.98519ZM8.82708 2.98519H7.68173V1.83984H8.82708V2.98519ZM6.53638 2.98519H5.39103V1.83984H6.53638V2.98519ZM4.24568 2.98519H3.25065V2.56285H2.67798V1.83984H4.24568V2.98519Z" fill="#F8C65D"/>
<path d="M10.6003 10.3203H44.4069V24.706H10.6003V10.3203Z" stroke="#F8C65D" stroke-width="2"/>
<path d="M45.9723 26.2862H9.02759V8.74805H45.9795V26.2862H45.9723ZM10.1729 25.1409H44.8341V9.8934H10.1729V25.1409Z" fill="#F8C65D"/>
<path d="M18.219 40.8537H9.02759V30.4453H18.219V40.8537ZM10.1729 39.7083H17.0737V31.5907H10.1729V39.7083Z" fill="#F8C65D"/>
<path d="M32.0992 40.8537H22.9006V30.4453H32.0992V40.8537ZM24.046 39.7083H30.9539V31.5907H24.0531V39.7083H24.046Z" fill="#F8C65D"/>
<path d="M18.219 56.1437H9.02759V45.7354H18.219V56.1437ZM10.1729 54.9984H17.0737V46.8807H10.1729V54.9984Z" fill="#F8C65D"/>
<path d="M32.0992 56.1437H22.9006V45.7354H32.0992V56.1437ZM24.046 54.9984H30.9539V46.8807H24.0531V54.9984H24.046Z" fill="#F8C65D"/>
<path d="M45.9724 56.1433H36.781V30.4445H45.9724V56.1433ZM37.9263 54.998H44.827V31.5899H37.9263V54.998ZM9.60034 13.8369H15.2197V14.9823H9.60034V13.8369ZM9.60034 19.3274H19.6007V20.4728H9.60034V19.3274Z" fill="#F8C65D"/>
<path d="M1.41113 0.572266H5.09057V4.25171H1.41113V0.572266Z" fill="white"/>
<path d="M5.66317 4.83195H0.838379V0H5.66317V4.83195ZM1.98373 3.6866H4.51782V1.14535H1.98373V3.6866Z" fill="#F8C65D"/>
<path d="M49.9094 0.572266H53.5889V4.25171H49.9094V0.572266Z" fill="white"/>
<path d="M54.1617 4.83195H49.3369V0H54.1617V4.83195ZM50.4823 3.6866H53.0164V1.14535H50.4823V3.6866Z" fill="#F8C65D"/>
<path d="M1.41113 59.8877H5.09057V63.5671H1.41113V59.8877Z" fill="white"/>
<path d="M5.66317 64.1392H0.838379V59.3145H5.66317V64.1392ZM1.98373 62.9939H4.51782V60.4598H1.98373V62.9939Z" fill="#F8C65D"/>
<path d="M49.9094 59.8877H53.5889V63.5671H49.9094V59.8877Z" fill="white"/>
<path d="M54.1617 64.1392H49.3369V59.3145H54.1617V64.1392ZM50.4823 62.9939H53.0164V60.4598H50.4823V62.9939Z" fill="#F8C65D"/>
</svg>
