<svg width="63" height="65" viewBox="0 0 63 65" fill="none" xmlns="http://www.w3.org/2000/svg">
<path d="M17.1327 34.0286C7.77012 34.0286 0.153076 26.9975 0.153076 18.3551V3.98776C0.153076 3.26639 0.737827 2.68164 1.4592 2.68164H6.68369C7.40506 2.68164 7.98981 3.26639 7.98981 3.98776C7.98981 4.70913 7.40506 5.29389 6.68369 5.29389H2.76532V18.3551C2.76532 25.5571 9.21051 31.4163 17.1327 31.4163C25.0548 31.4163 31.5 25.5572 31.5 18.3551V5.29389H27.5816C26.8603 5.29389 26.2755 4.70913 26.2755 3.98776C26.2755 3.26639 26.8603 2.68164 27.5816 2.68164H32.8061C33.5274 2.68164 34.1123 3.26639 34.1123 3.98776V18.3551C34.1124 26.9976 26.4953 34.0286 17.1327 34.0286Z" fill="#F7C65F"/>
<path d="M10.6022 7.90616C10.4635 7.90616 10.3241 7.88408 10.1892 7.83915L6.27081 6.53303C5.73752 6.35527 5.37769 5.85607 5.37769 5.29391V2.68167C5.37769 2.11951 5.73739 1.62044 6.27081 1.44255L10.1892 0.136425C10.5873 0.00359187 11.0252 0.0703347 11.3659 0.316016C11.7064 0.561437 11.9083 0.955755 11.9083 1.37554V6.60003C11.9083 7.01982 11.7065 7.41414 11.3659 7.65956C11.1407 7.82191 10.8728 7.90616 10.6022 7.90616ZM7.98993 4.35246L9.29605 4.78779V3.18766L7.98993 3.62299V4.35246Z" fill="#F7C65F"/>
<path d="M23.6634 7.90607C23.3927 7.90607 23.1249 7.82182 22.8996 7.65947C22.5591 7.41405 22.3572 7.01973 22.3572 6.59995V1.37546C22.3572 0.955667 22.559 0.561349 22.8996 0.315929C23.2402 0.0703776 23.6782 0.00363471 24.0763 0.136337L27.9947 1.44246C28.528 1.62022 28.8878 2.11942 28.8878 2.68158V5.29382C28.8878 5.85598 28.5281 6.35505 27.9947 6.53294L24.0763 7.83906C23.9415 7.88399 23.802 7.90607 23.6634 7.90607ZM24.9694 3.18757V4.78783L26.2755 4.3525V3.62303L24.9694 3.18757Z" fill="#F7C65F"/>
<path d="M34.7654 64.0694C24.1455 64.0694 15.8267 54.89 15.8267 43.1715V32.7225C15.8267 32.0011 16.4114 31.4164 17.1328 31.4164C17.8542 31.4164 18.4389 32.0011 18.4389 32.7225V43.1715C18.4389 53.4252 25.6104 61.4572 34.7654 61.4572C43.9204 61.4572 51.092 53.4252 51.092 43.1715V26.1919C51.092 25.4705 51.6768 24.8857 52.3981 24.8857C53.1193 24.8857 53.7042 25.4705 53.7042 26.1919V43.1715C53.7042 54.89 45.3853 64.0694 34.7654 64.0694Z" fill="#F7C65F"/>
<path d="M52.3982 27.4976C46.6366 27.4976 41.9492 22.8102 41.9492 17.0486C41.9492 11.287 46.6366 6.59961 52.3982 6.59961C58.1598 6.59961 62.8472 11.287 62.8472 17.0486C62.8472 22.8102 58.1598 27.4976 52.3982 27.4976ZM52.3982 9.21185C48.077 9.21185 44.5615 12.7274 44.5615 17.0486C44.5615 21.3698 48.077 24.8853 52.3982 24.8853C56.7194 24.8853 60.2349 21.3698 60.2349 17.0486C60.2349 12.7274 56.7194 9.21185 52.3982 9.21185Z" fill="#F7C65F"/>
<path d="M52.3981 22.2732C49.5173 22.2732 47.1736 19.9295 47.1736 17.0487C47.1736 14.1679 49.5173 11.8242 52.3981 11.8242C55.2789 11.8242 57.6226 14.1679 57.6226 17.0487C57.6226 19.9295 55.2787 22.2732 52.3981 22.2732ZM52.3981 14.4365C50.9577 14.4365 49.7858 15.6083 49.7858 17.0487C49.7858 18.4891 50.9577 19.661 52.3981 19.661C53.8385 19.661 55.0103 18.4891 55.0103 17.0487C55.0103 15.6083 53.8385 14.4365 52.3981 14.4365Z" fill="#F7C65F"/>
</svg>
