<svg width="477" height="489" viewBox="0 0 477 489" fill="none" xmlns="http://www.w3.org/2000/svg">
<path d="M382.656 93.6512L403.948 83.8682" stroke="white" stroke-width="2"/>
<path d="M355.033 60.8495L369.42 36.6797" stroke="#F8C65D" stroke-width="2"/>
<path d="M318.203 45.8865L315.901 19.9902" stroke="white" stroke-width="2"/>
<path d="M448.307 1H180.042C165.131 1 153.042 13.0883 153.042 28V208.411C153.042 222.787 164.307 234.642 178.664 235.376L349.687 244.122C353.543 244.319 357.247 245.686 360.307 248.042L415.238 290.33C420.498 294.379 428.118 290.629 428.118 283.991V240.132C428.118 230.743 435.729 223.132 445.118 223.132H448.307C463.218 223.132 475.307 211.044 475.307 196.132V28C475.307 13.0883 463.218 1 448.307 1Z" stroke="white" stroke-width="2"/>
<path d="M153.042 171.915H11.6934C6.17051 171.915 1.69336 176.392 1.69336 181.915V397.858C1.69336 403.381 6.17051 407.858 11.6934 407.858H44.0613C49.5841 407.858 54.0613 412.336 54.0613 417.858V464.858C54.0613 473.767 64.8327 478.229 71.1324 471.929L132.274 410.787C134.149 408.912 136.693 407.858 139.345 407.858H330.071C335.594 407.858 340.071 403.381 340.071 397.858V246.726" stroke="white" stroke-width="2"/>
<path d="M160.523 226.01L139.13 236.967C137.743 237.678 136.104 237.701 134.697 237.029L115.104 227.678C113.046 226.696 110.585 227.23 109.119 228.977L98.7268 241.369C97.4608 242.878 97.1992 244.99 98.0587 246.763L104.89 260.852C105.504 262.118 105.556 263.584 105.033 264.891L97.9033 282.716C97.144 284.614 95.3054 285.859 93.2609 285.859H82.6555C79.8941 285.859 77.6555 288.097 77.6555 290.859V308.204C77.6555 310.33 79.0007 312.224 81.0087 312.925L99.6029 319.411C101.328 320.013 102.588 321.508 102.888 323.31L105.453 338.7C105.706 340.217 105.246 341.767 104.207 342.901L96.3787 351.44C94.5899 353.392 94.6321 356.399 96.475 358.3L108.962 371.177C110.526 372.79 112.973 373.161 114.946 372.086L128.392 364.751C129.78 363.994 131.445 363.938 132.881 364.601L150.138 372.565C151.908 373.383 153.042 375.155 153.042 377.105V385.595C153.042 388.356 155.281 390.595 158.042 390.595H178.455C180.764 390.595 182.773 389.013 183.315 386.768L185.867 376.198C186.217 374.746 187.197 373.528 188.54 372.875L205.055 364.84C206.694 364.043 208.637 364.2 210.126 365.251L223.156 374.449C225.426 376.052 228.568 375.495 230.15 373.21L240.867 357.731C242.042 356.034 242.053 353.789 240.895 352.08L232.695 339.976C231.516 338.235 231.552 335.942 232.785 334.239L241.809 321.778C242.462 320.876 243.396 320.219 244.465 319.908L257.05 316.255C259.186 315.635 260.656 313.678 260.656 311.453V289.958C260.656 287.574 258.973 285.522 256.636 285.055L240.739 281.876C238.845 281.497 237.338 280.06 236.869 278.185L233.966 266.571C233.732 265.638 233.773 264.658 234.083 263.747L242.816 238.095" stroke="#F8C65D" stroke-width="2"/>
<circle cx="169.731" cy="301.396" r="36.4057" stroke="white" stroke-width="2"/>
<path d="M267.977 117.378L267.986 117.312V117.246C267.986 91.4185 288.923 70.4814 314.75 70.4814C340.571 70.4814 361.503 91.4075 361.514 117.225C361.42 119.451 360.379 124.114 357.444 130.662C354.511 137.205 349.712 145.576 342.162 155.184L342.129 155.227L342.1 155.272C339.684 159.138 338.509 164.105 337.998 168.668C337.554 172.634 337.604 176.375 337.817 178.972H294.472C294.489 175.071 294.091 169.481 292.834 164.203C292.147 161.321 291.197 158.498 289.898 156.084C288.601 153.673 286.924 151.611 284.757 150.336C280.062 147.575 275.437 142.408 272.196 136.34C268.954 130.272 267.166 123.437 267.977 117.378Z" stroke="white" stroke-width="2"/>
<path d="M381.505 135.085L403.373 143.717" stroke="#F8C65D" stroke-width="2"/>
<path d="M277.344 59.1227L262.958 39.5566" stroke="#F8C65D" stroke-width="2"/>
<path d="M253.75 91.9248L227.278 83.8682" stroke="white" stroke-width="2"/>
<path d="M252.599 135.085L226.703 143.717" stroke="#F8C65D" stroke-width="2"/>
<path d="M296.335 208.17H337.193" stroke="white" stroke-width="2"/>
</svg>
