<svg width="578" height="549" viewBox="0 0 578 549" fill="none" xmlns="http://www.w3.org/2000/svg">
<path d="M1.75 403.25V239.507C1.75 235.089 5.33172 231.507 9.75 231.507H26.9812C28.4645 231.507 29.9186 231.919 31.181 232.698L131.162 294.369C134.179 296.23 135.612 299.855 134.682 303.276L99.4734 432.826C98.2668 437.265 93.5737 439.775 89.2117 438.313L7.20827 410.836C3.94763 409.743 1.75 406.689 1.75 403.25Z" stroke="white" stroke-width="2"/>
<path d="M96.75 273.507L60.75 427.007" stroke="white" stroke-width="2"/>
<path d="M129.25 324.007L209.507 308.677C215.286 307.573 221.22 307.541 227.011 308.583L291.75 320.229M291.75 320.229L312.75 324.007L367.879 340.939C377.409 343.866 387.708 342.931 396.555 338.334L559.582 253.633C561.007 252.893 562.588 252.507 564.193 252.507H566.25C571.773 252.507 576.25 256.984 576.25 262.507V372.406C576.25 375.517 574.446 378.346 571.625 379.659L407.935 455.827C405.083 457.154 401.718 456.686 399.336 454.632L309.057 376.789C306.73 374.783 303.459 374.286 300.641 375.512L249.747 397.657C243.245 400.486 235.807 401.588 229.561 398.233C220.715 393.48 212.406 384.54 214.761 370.029C215.963 362.618 221.851 357.107 228.492 353.603L291.75 320.229Z" stroke="#F8C65D" stroke-width="2"/>
<path d="M404.25 456.507C405.353 464.542 402.494 481.961 383.254 487.221C381.054 487.822 378.725 487.202 376.931 485.794L319.25 440.507" stroke="white" stroke-width="2"/>
<path d="M379.75 487.507C380.853 495.542 377.994 512.961 358.754 518.221C356.554 518.822 354.225 518.202 352.431 516.794L294.75 471.507" stroke="white" stroke-width="2"/>
<path d="M352.75 517.007C353.853 525.042 350.994 542.014 331.755 547.225C329.554 547.821 327.225 547.202 325.431 545.794L267.75 500.507L177.911 426.19C174.709 423.541 170.014 423.784 167.103 426.749L149.369 444.812C146.918 447.308 143.13 447.922 140.016 446.329L102.25 427.007" stroke="white" stroke-width="2"/>
<path d="M72.75 258.007L105.75 248.507V229.832C87.2298 218.459 74.75 197.047 74.75 172.507C74.75 136.056 102.284 106.507 136.25 106.507C170.216 106.507 197.75 136.056 197.75 172.507C197.75 197.047 185.27 218.459 166.75 229.832V248.507L207.25 264.007M207.25 264.007C197.25 265.84 179.05 278.107 186.25 312.507M207.25 264.007L259.75 251.507L258.25 229.507" stroke="white" stroke-width="2"/>
<path d="M258.75 229.837C240.828 218.465 228.75 197.051 228.75 172.507C228.75 136.056 255.389 106.507 288.25 106.507C321.111 106.507 347.75 136.056 347.75 172.507C347.75 197.504 335.222 219.256 316.75 230.457V249.007L377.25 263.007C385.917 269.507 401.15 295.307 390.75 340.507" stroke="#F8C65D" stroke-width="2"/>
<path d="M527.75 269.507L469.25 248.507V229.345C486.31 217.854 497.75 196.701 497.75 172.507C497.75 136.056 471.783 106.507 439.75 106.507C407.717 106.507 381.75 136.056 381.75 172.507C381.75 197.635 394.09 219.482 412.25 230.631V250.507L377.25 263.007" stroke="white" stroke-width="2"/>
<path d="M389.495 139.507C376.65 99.0494 336.183 69.5071 288.25 69.5071C241.51 69.5071 201.869 97.5972 188.015 136.507" stroke="#F8C65D" stroke-width="2"/>
<path d="M153.25 109.007L143.256 85.5738C140.534 79.1898 141.965 71.7917 146.873 66.8842L170.44 43.3169C176.587 37.1702 186.38 36.6508 193.143 42.1127L199.109 46.9315C204.101 50.9638 210.939 51.8411 216.788 49.1998L245.239 36.3509C250.539 33.9571 254.248 29.0195 255.071 23.2618L256.165 15.6029C257.361 7.22788 264.534 1.00708 272.994 1.00708H302.997C310.314 1.00708 316.811 5.68939 319.125 12.6312L324.176 27.7852C325.804 32.6677 329.555 36.5501 334.379 38.3436L358.539 47.3262C363.123 49.0303 368.218 48.6782 372.523 46.3599L386.816 38.6637C393.567 35.0289 401.915 36.3623 407.197 41.919L429.785 65.68C434.077 70.1957 435.556 76.6978 433.638 82.6257L425.75 107.007" stroke="white" stroke-width="2"/>
</svg>
