<svg width="493" height="553" viewBox="0 0 493 553" fill="none" xmlns="http://www.w3.org/2000/svg">
<circle cx="246.223" cy="241.53" r="127.578" stroke="#F8C65D" stroke-width="2"/>
<circle cx="236.247" cy="517.53" r="34.4699" stroke="white" stroke-width="2"/>
<circle cx="424.681" cy="426.639" r="34.4699" stroke="white" stroke-width="2"/>
<circle cx="63.3312" cy="426.639" r="34.4699" stroke="white" stroke-width="2"/>
<path d="M97.6929 429.964H147.777C151.643 429.964 154.777 426.83 154.777 422.964V332.422" stroke="white" stroke-width="2"/>
<path d="M331.572 337.964V415.759C331.572 419.625 334.706 422.759 338.572 422.759H390.319" stroke="white" stroke-width="2"/>
<path d="M239.018 370.108V481.506" stroke="white" stroke-width="2"/>
<path d="M1.25903 289.193V211.952C1.25903 208.086 4.39304 204.952 8.25903 204.952H49.7325C52.5909 204.952 55.1621 203.214 56.2278 200.562L77.7069 147.102C78.7386 144.535 78.1607 141.6 76.2325 139.615L46.4563 108.963C43.8171 106.246 43.8177 101.923 46.4576 99.2068L94.9397 49.3262C97.4464 46.7472 101.5 46.4875 104.315 48.7254L139.338 76.564C141.34 78.1552 144.05 78.5282 146.407 77.5368L197.93 55.8684C200.357 54.8476 202.006 52.5511 202.198 49.9249L205.292 7.49094C205.559 3.83217 208.605 1 212.273 1H281.343C285.209 1 288.343 4.13401 288.343 8V44.9454C288.343 47.5682 289.81 49.9709 292.142 51.1704L342.281 76.9561C344.847 78.2757 347.959 77.8857 350.12 75.9741L384.763 45.3289C387.563 42.852 391.815 43.0123 394.42 45.693L443.051 95.7266C445.531 98.2782 445.702 102.284 443.449 105.038L415.198 139.567C413.535 141.6 413.15 144.394 414.202 146.802L435.772 196.174C436.793 198.512 439.006 200.109 441.546 200.342L485.381 204.368C488.984 204.699 491.741 207.72 491.741 211.338V286.422" stroke="#F8C65D" stroke-width="2"/>
</svg>
