<svg width="515" height="512" viewBox="0 0 515 512" fill="none" xmlns="http://www.w3.org/2000/svg">
<rect x="41.1423" y="453.764" width="471.858" height="56.7435" rx="11.5" stroke="#F8C65D" stroke-width="3"/>
<path d="M278.616 452.264V199.384M76.7244 452.264V289.514M76.7244 150.971V78.8392C76.7244 73.0577 80.5426 67.9709 86.0941 66.3564L126.682 54.5527M278.616 115.949V27.687C278.616 19.0246 270.304 12.7852 261.986 15.2042L126.682 54.5527M126.682 54.5527V0.582275" stroke="white" stroke-width="3"/>
<path d="M2 172.576C2 163.463 9.3873 156.076 18.5 156.076H103.017C112.13 156.076 119.517 163.463 119.517 172.576V226.809C119.517 237.57 115.337 247.91 107.859 255.648L71.3134 293.465C66.0695 298.892 57.3957 298.966 52.0598 293.63L14.1551 255.725C6.37232 247.942 2 237.387 2 226.38V172.576Z" stroke="white" stroke-width="3"/>
<path d="M39.6423 220.5L54.0632 234.921L91.1453 197.839" stroke="white" stroke-width="3"/>
<rect x="155.479" y="92.2126" width="44.3828" height="44.3828" rx="8.5" stroke="white" stroke-width="3"/>
<rect x="155.479" y="175.647" width="44.3828" height="44.3828" rx="8.5" stroke="#F8C65D" stroke-width="3"/>
<rect x="155.479" y="260.112" width="44.3828" height="44.3828" rx="8.5" stroke="white" stroke-width="3"/>
<rect x="155.479" y="342.517" width="44.3828" height="44.3828" rx="8.5" stroke="#F8C65D" stroke-width="3"/>
<rect x="255.395" y="151.956" width="243.184" height="44.3828" rx="8.5" stroke="white" stroke-width="3"/>
<path d="M457.847 150.456V109.983C457.847 104.46 453.37 99.9832 447.847 99.9832H402.953C397.43 99.9832 392.953 104.46 392.953 109.983V150.456" stroke="#F8C65D" stroke-width="3"/>
<path d="M419.219 231.831V265.308M376.472 231.831V265.308M333.724 231.831V265.308" stroke="#F8C65D" stroke-width="3"/>
<path d="M333.209 452.779V389.945M420.25 452.779L418.313 329.321C418.244 324.952 414.683 321.446 410.314 321.446H341.209C336.791 321.446 333.209 325.028 333.209 329.446V389.945M333.209 389.945H355.356" stroke="white" stroke-width="3"/>
<path d="M476.388 453.294V416.727M476.388 385.825V197.839" stroke="white" stroke-width="3"/>
</svg>
