<svg width="564" height="563" viewBox="0 0 564 563" fill="none" xmlns="http://www.w3.org/2000/svg">
<path d="M220.142 242.718H221.642V241.218V217.645C221.642 184.365 248.72 157.287 282.001 157.287C315.282 157.287 342.36 184.365 342.36 217.645L342.36 241.218L342.36 242.718H343.86H384.049V312.387C383.48 368.175 337.699 413.486 282.002 413.486C226.304 413.486 180.522 368.174 179.951 312.487V242.718H220.142ZM367.275 260.992V259.492H365.775H198.225H196.725V260.992V312.395V312.402L196.725 312.41C197.199 358.854 235.451 396.712 282.001 396.712C328.553 396.712 366.803 358.853 367.275 312.309L367.275 312.301V312.294V260.992ZM238.416 241.218V242.718H239.916H324.085H325.585V241.218V217.645C325.585 193.612 306.035 174.061 282.001 174.061C257.967 174.061 238.416 193.612 238.416 217.645V241.218Z" stroke="#F7C65F" stroke-width="3"/>
<path d="M309.339 528.013C310.537 524.834 311.233 521.378 311.233 517.741C311.233 513.105 310.12 508.742 308.212 504.869C303.454 495.214 293.521 488.508 282 488.508C270.478 488.508 260.546 495.213 255.788 504.868C253.877 508.742 252.766 513.106 252.766 517.741C252.766 521.378 253.462 524.834 254.66 528.013C258.822 539.057 269.474 546.975 282 546.975C294.525 546.975 305.177 539.057 309.339 528.013ZM309.339 528.013L305.362 526.514L309.339 528.012C309.339 528.013 309.339 528.013 309.339 528.013ZM520.189 237.655L520.745 240.7L523.814 241.105C543.643 243.719 559 260.73 559.001 281.251C559.001 301.773 543.644 318.783 523.814 321.397L520.745 321.802L520.189 324.847C502.185 423.468 424.218 501.433 325.595 519.438L322.55 519.994L322.145 523.063C319.531 542.893 302.521 558.25 282 558.25C261.479 558.25 244.468 542.891 241.854 523.064L241.449 519.994L238.404 519.438C139.781 501.432 61.8157 423.468 43.8115 324.846L43.2555 321.8L40.186 321.395C20.3566 318.782 4.99951 301.773 4.99951 281.251C4.99951 260.73 20.3569 243.719 40.186 241.105L43.2555 240.7L43.8115 237.655C61.8161 139.033 139.781 61.0668 238.404 43.0613L241.449 42.5053L241.854 39.4359C244.468 19.6077 261.479 4.25 282 4.25C302.521 4.25 319.531 19.6067 322.145 39.435L322.55 42.5044L325.595 43.0604C424.218 61.0656 502.183 139.031 520.189 237.655ZM35.2365 308.591L35.2376 308.591C38.4159 309.788 41.8712 310.483 45.5081 310.483C50.1443 310.483 54.5066 309.371 58.379 307.464L58.381 307.463C68.0337 302.704 74.7408 292.774 74.7408 281.251C74.7408 269.729 68.0346 259.797 58.3813 255.039C54.5069 253.128 50.1437 252.017 45.5081 252.017C41.8711 252.017 38.4155 252.713 35.2369 253.911C24.193 258.072 16.2739 268.724 16.2739 281.251C16.2739 293.778 24.1934 304.428 35.2365 308.591ZM320.495 505.157L321.659 508.708L325.33 508.008C417.947 490.346 491.097 417.197 508.759 324.58L509.459 320.91L505.908 319.745C489.706 314.434 477.984 299.177 477.984 281.251C477.984 263.324 489.706 248.066 505.908 242.755L509.459 241.591L508.759 237.92C491.097 145.303 417.947 72.1534 325.33 54.4911L321.659 53.7911L320.495 57.3418C315.183 73.5444 299.927 85.2663 282 85.2663C264.073 85.2663 248.815 73.5442 243.504 57.3419L242.34 53.7911L238.669 54.4911C146.053 72.1534 72.9035 145.303 55.2412 237.92L54.5412 241.591L58.0919 242.755C74.293 248.066 86.0152 263.324 86.0152 281.251C86.0152 299.178 74.2932 314.434 58.092 319.745L54.5412 320.91L55.2412 324.58C72.9035 417.197 146.053 490.346 238.669 508.008L242.34 508.708L243.504 505.157C248.815 488.957 264.073 477.234 282 477.234C299.927 477.234 315.184 488.956 320.495 505.157ZM505.62 307.463L505.621 307.464C509.494 309.371 513.856 310.483 518.494 310.483C522.131 310.483 525.584 309.788 528.763 308.591L527.265 304.614L528.763 308.591C539.808 304.431 547.726 293.777 547.726 281.251C547.726 268.725 539.808 258.071 528.764 253.911C525.585 252.713 522.131 252.017 518.494 252.017C513.857 252.017 509.493 253.128 505.619 255.039C495.965 259.798 489.258 269.73 489.258 281.251C489.258 292.774 495.966 302.704 505.62 307.463ZM311.233 44.757C311.233 41.1204 310.538 37.6654 309.339 34.4865C305.178 23.4435 294.526 15.5244 282 15.5244C269.473 15.5244 258.821 23.4434 254.66 34.4863C253.462 37.6651 252.766 41.1201 252.766 44.757C252.766 49.3932 253.877 53.7564 255.788 57.6308C260.546 67.2857 270.477 73.9919 282 73.9919C293.522 73.9919 303.454 67.285 308.212 57.6297C310.12 53.7566 311.233 49.3938 311.233 44.757Z" fill="white" stroke="#02030F" stroke-width="8.5"/>
</svg>
