<svg width="420" height="560" viewBox="0 0 420 560" fill="none" xmlns="http://www.w3.org/2000/svg">
<path d="M170.073 304.395V319.049H155.419V304.395H170.073Z" fill="white"/>
<path d="M217.274 293.661V308.315H202.619V293.661H217.274Z" fill="white"/>
<path d="M263.608 304.326V318.98H248.954V304.326H263.608Z" fill="white"/>
<path d="M178.03 267.784V276.473H157.342V267.784H178.03Z" fill="white"/>
<path d="M261.667 267.803V276.492H240.979V267.803H261.667Z" fill="white"/>
<path d="M220.291 266.843V275.532H199.603V266.843H220.291Z" fill="white"/>
<path d="M251.376 263.574V312.998H286.433V347.5" stroke="white" stroke-width="5.2" stroke-linejoin="round"/>
<path d="M210 261.593V363.229" stroke="white" stroke-width="5.2" stroke-miterlimit="10"/>
<path d="M167.761 263.574V312.998H132.705V347" stroke="white" stroke-width="5.2" stroke-linejoin="round"/>
<path d="M416.883 193.166C416.883 196.694 416.624 200.152 416.105 203.528C411.121 236.401 382.77 261.595 348.534 261.595H80.8482C46.7488 261.595 17.7835 239.613 7.31001 209.036C4.59296 201.121 3.11719 192.62 3.11719 183.777C3.11719 140.815 37.9132 105.972 80.8482 105.972C87.5116 105.972 93.9853 106.807 100.171 108.391C109.581 48.6587 161.255 2.98755 223.582 2.98755C291.481 2.98755 346.732 57.2012 348.494 124.754H348.534C386.28 124.754 416.883 155.384 416.883 193.166Z" stroke="#F8C65D" stroke-width="4.4" stroke-linecap="round" stroke-linejoin="round"/>
<path d="M225.073 544.595C225.073 552.989 218.267 559.794 209.871 559.794C201.475 559.794 194.668 552.989 194.668 544.595C194.668 536.197 201.475 529.392 209.871 529.392C218.267 529.392 225.073 536.197 225.073 544.595Z" fill="white"/>
<path d="M102.816 544.595C102.816 549.572 98.7781 553.61 93.7991 553.61C88.8218 553.61 84.7859 549.572 84.7859 544.595C84.7859 539.614 88.8218 535.58 93.7991 535.58C98.7781 535.58 102.816 539.614 102.816 544.595Z" stroke="white" stroke-width="3.9" stroke-miterlimit="10"/>
<path d="M333.689 544.595C333.689 549.572 329.649 553.61 324.672 553.61C319.695 553.61 315.659 549.572 315.659 544.595C315.659 539.614 319.695 535.58 324.672 535.58C329.649 535.58 333.689 539.614 333.689 544.595Z" stroke="white" stroke-width="3.9" stroke-miterlimit="10"/>
<path d="M209.871 542.584V351.345" stroke="white" stroke-width="5.2" stroke-miterlimit="10"/>
<path d="M104.083 544.595H315.659" stroke="white" stroke-width="5.2" stroke-miterlimit="10"/>
<path d="M335.285 515.598H82.9913V467.06H335.285V515.598Z" stroke="#F8C65D" stroke-width="1.3"/>
<path d="M303.52 480.537C303.52 483.268 301.306 485.48 298.575 485.48C295.846 485.48 293.631 483.268 293.631 480.537C293.631 477.806 295.846 475.594 298.575 475.594C301.306 475.594 303.52 477.806 303.52 480.537Z" fill="white"/>
<path d="M321.891 480.537C321.891 483.268 319.677 485.48 316.946 485.48C314.216 485.48 312.002 483.268 312.002 480.537C312.002 477.806 314.216 475.594 316.946 475.594C319.677 475.594 321.891 477.806 321.891 480.537Z" fill="white"/>
<path d="M115.611 493.731H95.9817V488.931H115.611V493.731Z" fill="white"/>
<path d="M115.611 504.523H95.9817V499.724H115.611V504.523Z" fill="white"/>
<path d="M115.611 482.938H95.9817V478.139H115.611V482.938Z" fill="white"/>
<path d="M335.285 455.747H82.9913V407.206H335.285V455.747Z" stroke="#F8C65D" stroke-width="1.3"/>
<path d="M303.52 420.684C303.52 423.415 301.306 425.627 298.575 425.627C295.846 425.627 293.631 423.415 293.631 420.684C293.631 417.953 295.846 415.738 298.575 415.738C301.306 415.738 303.52 417.953 303.52 420.684Z" fill="white"/>
<path d="M321.891 420.684C321.891 423.415 319.677 425.627 316.946 425.627C314.216 425.627 312.002 423.415 312.002 420.684C312.002 417.953 314.216 415.738 316.946 415.738C319.677 415.738 321.891 417.953 321.891 420.684Z" fill="white"/>
<path d="M115.611 433.878H95.9817V429.078H115.611V433.878Z" fill="white"/>
<path d="M115.611 444.67H95.9817V439.871H115.611V444.67Z" fill="white"/>
<path d="M115.611 423.082H95.9817V418.282H115.611V423.082Z" fill="white"/>
<path d="M335.285 395.891H82.9913V347.353H335.285V395.891Z" stroke="#F8C65D" stroke-width="1.3"/>
<path d="M210.15 347.353H335.285V395.891H210.15V347.353Z" stroke="white" stroke-width="1.3"/>
<path d="M303.52 360.828C303.52 363.558 301.306 365.774 298.575 365.774C295.846 365.774 293.631 363.558 293.631 360.828C293.631 358.097 295.846 355.885 298.575 355.885C301.306 355.885 303.52 358.097 303.52 360.828Z" fill="white"/>
<path d="M321.891 360.828C321.891 363.558 319.677 365.774 316.946 365.774C314.216 365.774 312.002 363.558 312.002 360.828C312.002 358.097 314.216 355.885 316.946 355.885C319.677 355.885 321.891 358.097 321.891 360.828Z" fill="white"/>
<path d="M115.611 374.022H95.9817V369.222H115.611V374.022Z" fill="white"/>
<path d="M115.611 384.817H95.9817V380.018H115.611V384.817Z" fill="white"/>
<path d="M115.611 363.231H95.9817V358.431H115.611V363.231Z" fill="white"/>
<path d="M242.038 124.419V119.68C242.038 102.01 227.668 87.6351 210.002 87.6351C192.332 87.6351 177.957 102.01 177.957 119.68V124.419H173.302V119.68C173.302 99.4434 189.768 82.9799 210.002 82.9799C230.239 82.9799 246.707 99.4435 246.707 119.68V124.419H242.038Z" fill="#F8C65D" stroke="#03061A"/>
<path d="M256.574 210.621H163.423C160.999 210.621 159.034 208.658 159.034 206.236V131.01C159.034 128.585 160.999 126.618 163.423 126.618H256.574C259.001 126.618 260.966 128.585 260.966 131.01V206.236C260.966 208.658 259.001 210.621 256.574 210.621Z" stroke="#F8C65D" stroke-width="3.38" stroke-miterlimit="10"/>
<path d="M221.337 190.598L215.95 166.683C218.929 164.737 220.904 161.375 220.904 157.549C220.904 151.523 216.022 146.641 209.997 146.641C203.973 146.641 199.089 151.523 199.089 157.549C199.089 161.375 201.064 164.737 204.045 166.683L198.658 190.598H221.337Z" stroke="#F8C65D" stroke-width="3.588" stroke-linejoin="round"/>
</svg>
