<svg width="42" height="41" viewBox="0 0 42 41" fill="none" xmlns="http://www.w3.org/2000/svg">
<path d="M21.3418 10.8433H20.0822C19.3518 10.8433 18.748 11.4126 18.7051 12.1418C18.6764 12.6302 18.3911 13.0668 17.9554 13.2893L17.6181 13.4615C17.0919 13.7302 16.4526 13.6292 16.0349 13.2115C15.4975 12.6741 14.6245 12.6802 14.0946 13.225L13.0149 14.3351C12.5368 14.8266 12.5423 15.6111 13.0272 16.096C13.3889 16.4577 13.4946 17.0029 13.2943 17.4736L13.1072 17.9134C12.9254 18.3405 12.5061 18.6178 12.0419 18.6178C11.4026 18.6178 10.8843 19.1361 10.8843 19.7754V21.3653C10.8843 22.0399 11.4312 22.5868 12.1058 22.5868C12.5403 22.5868 12.942 22.8176 13.161 23.1929L13.4667 23.717C13.7533 24.2084 13.6728 24.8313 13.2705 25.2336C12.7866 25.7174 12.7807 26.5 13.2572 26.9911L14.1453 27.9066C14.645 28.4216 15.4713 28.4221 15.9715 27.9076C16.2919 27.5781 16.7649 27.4469 17.2093 27.5642L17.6088 27.6698C18.2276 27.8332 18.6587 28.393 18.6587 29.0331C18.6587 29.8118 19.29 30.4431 20.0688 30.4431H21.1457C21.8965 30.4431 22.505 29.8345 22.505 29.0838C22.505 28.5427 22.8261 28.053 23.3223 27.8373L23.5354 27.7446C24.0565 27.5181 24.6612 27.609 25.0926 27.9788C25.6687 28.4726 26.5246 28.4522 27.0765 27.9314L28.0441 27.0182C28.5778 26.5146 28.6014 25.6734 28.0967 25.1407C27.7538 24.7787 27.6427 24.2551 27.8092 23.7851L27.9453 23.4007C28.12 22.9075 28.5732 22.5669 29.0955 22.5361C29.7833 22.4957 30.3204 21.9261 30.3204 21.2371V19.7108C30.3204 19.062 29.7944 18.5359 29.1455 18.5359C28.689 18.5359 28.2739 18.2715 28.0808 17.8579L27.9208 17.515C27.6882 17.0165 27.7723 16.4277 28.1353 16.0144C28.6249 15.4567 28.5884 14.6122 28.0525 14.0989L27.0387 13.128C26.5074 12.6191 25.6787 12.5905 25.1135 13.0615C24.6723 13.4291 24.0554 13.5007 23.5417 13.2439L23.1481 13.0471C22.754 12.85 22.505 12.4472 22.505 12.0066C22.505 11.3641 21.9842 10.8433 21.3418 10.8433Z" stroke="#F8C65D"/>
<path d="M17.7585 2.90519C14.3623 3.5326 6.89879 6.62056 4.21455 13.9531M4.21455 13.9531C6.11316 13.3966 6.47869 13.2848 6.42414 13.2984M4.21455 13.9531L3.47803 12.1936" stroke="#F8C65D"/>
<path d="M3.20696 23.2416C3.478 27.1287 7.08188 34.0875 14.2804 37.1128M14.2804 37.1128C13.8136 35.1902 13.719 34.8198 13.7301 34.8749M14.2804 37.1128L12.4883 37.7659" stroke="#F8C65D"/>
<path d="M23.4052 37.9335C27.3005 37.8327 33.8667 34.0635 37.2039 27.0042M37.2039 27.0042C35.2627 27.3864 34.8885 27.4647 34.9441 27.4561M37.2039 27.0042L37.7781 28.8231" stroke="#F8C65D"/>
<path d="M37.9171 17.7241C38.0939 13.8315 34.4121 7.6517 27.1798 3.91859M27.1798 3.91859C27.4229 5.88208 27.4743 6.26087 27.4697 6.20483M27.1798 3.91859L29.035 3.47541" stroke="#F8C65D"/>
<circle cx="20.5817" cy="20.5818" r="3.63273" stroke="#F8C65D"/>
<circle cx="20.6228" cy="2.86427" r="2.36427" stroke="#F8C65D"/>
<circle cx="38.3811" cy="20.5409" r="2.36427" stroke="#F8C65D"/>
<circle cx="20.6228" cy="38.1357" r="2.36427" stroke="#F8C65D"/>
<circle cx="2.86427" cy="20.4591" r="2.36427" stroke="#F8C65D"/>
</svg>
