<svg width="47" height="47" viewBox="0 0 47 47" fill="none" xmlns="http://www.w3.org/2000/svg">
<path d="M17.7444 28.139V28.8073C17.7444 30.1765 16.9448 31.4196 15.6989 31.9873V31.9873C14.6531 32.4639 13.9085 33.4241 13.7073 34.5556L13.6523 34.865M22.3067 28.4683L22.636 33.1718" stroke="#F8C65D"/>
<path d="M28.8445 28.5624L28.5306 35.7111C28.4598 37.3237 28.9485 38.9111 29.9138 40.2047L30.7729 41.3558" stroke="#F8C65D"/>
<path d="M33.9712 28.3272V28.3272C33.9712 29.549 34.625 30.6774 35.6851 31.285L36.1744 31.5655C37.2291 32.17 37.9854 33.1855 38.2624 34.3691L38.3454 34.7239" stroke="#F8C65D"/>
<path d="M30.4647 16.8037C32.0612 14.8858 33.0777 12.5393 33.0777 10.1718C33.0777 4.58681 30.1493 1 24.5644 1C20.3288 1 17.4047 3.11712 16.239 6.57632C15.4594 8.88988 16.5249 11.291 17.5402 13.5112V13.5112" stroke="#F8C65D"/>
<path d="M37.2638 20.5701C38.7322 19.8907 39.7566 18.3546 39.7566 16.5685C39.7566 14.1527 37.8825 12.1943 35.5705 12.1943C34.3092 12.1943 33.1781 12.7772 32.4106 13.6994" stroke="#F8C65D"/>
<path d="M43.1902 26.3813C45.0152 25.7956 46.3415 24.0244 46.3415 21.9304C46.3415 19.3587 44.341 17.274 41.8732 17.274C41.069 17.274 40.3145 17.4954 39.6626 17.8829" stroke="#F8C65D"/>
<path d="M43.3311 26.3047C38.2513 29.5971 15.4865 28.5624 9.60715 26.743C5.73649 26.0189 2.78711 22.2657 2.78711 17.7444C2.78711 12.7049 6.45123 8.61963 10.9712 8.61963C12.8932 8.61963 14.6605 9.35837 16.0571 10.5951" stroke="#F8C65D"/>
<path d="M19.2026 6.45604C20.6294 4.41787 24.5364 1.56443 28.7507 6.45604" stroke="#F8C65D"/>
<path d="M29.3149 7.44379C29.4247 7.58489 29.6348 7.97998 29.5972 8.43152" stroke="#F8C65D"/>
<path d="M8.33752 6.73828C8.14938 6.73828 7.73547 6.79472 7.58496 7.02049" stroke="#F8C65D"/>
<path d="M1 14.6872C1.20382 12.8842 2.57096 8.9207 6.409 7.49084" stroke="#F8C65D"/>
<circle cx="13.6054" cy="38.0634" r="2.79243" stroke="#F8C65D"/>
<circle cx="22.636" cy="36.182" r="2.60429" stroke="#F8C65D"/>
<circle cx="32.7012" cy="43.8957" r="2.60429" stroke="#F8C65D"/>
<circle cx="38.3455" cy="37.6871" r="2.60429" stroke="#F8C65D"/>
</svg>
