<svg width="43" height="43" viewBox="0 0 43 43" fill="none" xmlns="http://www.w3.org/2000/svg">
<path d="M16.7712 18.6898H17.0212V18.4398V16.6378C17.0212 14.1685 19.0306 12.1591 21.5001 12.1591C23.9694 12.1591 25.9788 14.1684 25.9788 16.6378L25.9788 18.4398L25.9788 18.6898H26.2288H29.1657V23.8795C29.1226 28.0698 25.6833 31.4734 21.5001 31.4734C17.3167 31.4734 13.8775 28.0697 13.8342 23.8872V18.6898H16.7712ZM28.1541 19.9514V19.7014H27.9041H15.0958H14.8458V19.9514L14.8458 23.8808L14.8459 23.8834C14.8828 27.5081 17.8674 30.4618 21.5001 30.4618C25.1329 30.4618 28.1173 27.5079 28.1541 23.8756H28.1541V23.8731V19.9514ZM18.0329 18.4398V18.6898H18.2829H24.7171H24.9671V18.4398V16.6378C24.9671 14.7258 23.412 13.1707 21.5001 13.1707C19.588 13.1707 18.0329 14.7258 18.0329 16.6378V18.4398Z" stroke="#F8C65D" stroke-width="0.5"/>
<path d="M2.71567 19.6205C1.95547 19.907 1.41164 20.6398 1.41164 21.5001C1.41164 22.3603 1.95548 23.0931 2.71566 23.3796L2.71568 23.3796L4.30617 19.698C4.30616 19.698 4.30615 19.698 4.30615 19.698C4.03916 19.5663 3.7395 19.4902 3.42155 19.4902C3.17247 19.4902 2.93511 19.5378 2.71567 19.6205ZM2.71567 19.6205L2.75093 19.7141L2.71565 19.6205C2.71566 19.6205 2.71566 19.6205 2.71567 19.6205ZM23.3795 2.71559C23.0931 1.95547 22.3602 1.41164 21.5 1.41164L19.7876 4.26187L19.6979 4.30607C20.0256 4.97097 20.7088 5.43138 21.5 5.43138C22.2912 5.43138 22.9744 4.97097 23.3021 4.30607C23.4336 4.0391 23.5098 3.73945 23.5098 3.42143C23.5098 3.17235 23.4622 2.93505 23.3795 2.71559ZM23.3795 2.71559L23.2859 2.75085L23.3795 2.71557C23.3795 2.71558 23.3795 2.71559 23.3795 2.71559ZM39.9295 18.127L39.9426 18.1987L40.0148 18.2082C41.6408 18.4225 42.9001 19.8168 42.9001 21.5001C42.9001 23.1834 41.6408 24.5776 40.0148 24.792L39.9426 24.8015L39.9295 24.8732C38.5364 32.5042 32.5042 38.5362 24.8731 39.9294L24.8014 39.9425L24.7919 40.0147C24.5775 41.6407 23.1833 42.9 21.5 42.9C19.8168 42.9 18.4225 41.6406 18.2081 40.0147L18.1986 39.9425L18.1269 39.9294C10.4958 38.5361 4.46374 32.5042 3.07062 24.873L3.05753 24.8014L2.98531 24.7918C1.35931 24.5775 0.1 23.1834 0.1 21.5001C0.1 19.8168 1.35932 18.4225 2.98531 18.2082L3.05753 18.1987L3.07062 18.127C4.46377 10.4958 10.4958 4.46379 18.1269 3.07057L18.1986 3.05748L18.2081 2.98526C18.4225 1.35935 19.8168 0.1 21.5 0.1C23.1833 0.1 24.5775 1.35927 24.7919 2.98519L24.8014 3.05741L24.8731 3.07049C32.5042 4.46369 38.5362 10.4957 39.9295 18.127ZM24.6565 38.5464L24.6839 38.63L24.7702 38.6135C31.7597 37.2806 37.2807 31.7597 38.6136 24.7702L38.6301 24.6839L38.5465 24.6565C37.2186 24.2211 36.257 22.9709 36.257 21.5001C36.257 20.0293 37.2186 18.7789 38.5465 18.3436L38.6301 18.3162L38.6136 18.2298C37.2807 11.2404 31.7597 5.71935 24.7702 4.38645L24.6839 4.36998L24.6565 4.45352C24.2211 5.78142 22.9709 6.74302 21.5 6.74302C20.0292 6.74302 18.7788 5.78142 18.3435 4.45353L18.3161 4.36998L18.2298 4.38645C11.2404 5.71935 5.7194 11.2404 4.3865 18.2298L4.37003 18.3162L4.45357 18.3436C5.78137 18.7789 6.74298 20.0293 6.74298 21.5001C6.74298 22.9709 5.78137 24.2212 4.45357 24.6565L4.37003 24.6839L4.3865 24.7702C5.7194 31.7597 11.2404 37.2806 18.2298 38.6135L18.3161 38.63L18.3435 38.5464C18.7788 37.2186 20.0292 36.257 21.5 36.257C22.9709 36.257 24.2212 37.2186 24.6565 38.5464ZM38.6939 23.3021L38.694 23.3022C38.9609 23.4336 39.2606 23.5098 39.5787 23.5098C39.8277 23.5098 40.065 23.4622 40.2844 23.3796C41.0446 23.0933 41.5885 22.3603 41.5885 21.5001C41.5885 20.6398 41.0446 19.9069 40.2844 19.6205C40.065 19.5378 39.8277 19.4902 39.5787 19.4902C39.2606 19.4902 38.9609 19.5663 38.6939 19.698C38.0291 20.0257 37.5686 20.709 37.5686 21.5001C37.5686 22.2913 38.0291 22.9744 38.6939 23.3021ZM19.6205 40.2843C19.9069 41.0445 20.6398 41.5883 21.5 41.5883C22.3602 41.5883 23.0931 41.0445 23.3795 40.2843C23.4622 40.0649 23.5098 39.8275 23.5098 39.5785C23.5098 39.2605 23.4336 38.9608 23.3021 38.6938C22.9744 38.0289 22.2912 37.5686 21.5 37.5686C20.7088 37.5686 20.0256 38.0289 19.6979 38.6938C19.5663 38.9608 19.4901 39.2605 19.4901 39.5785C19.4901 39.8275 19.5378 40.0649 19.6205 40.2843Z" fill="#F8C65D" stroke="#1F202C" stroke-width="0.2"/>
</svg>
