<svg width="46" height="48" viewBox="0 0 46 48" fill="none" xmlns="http://www.w3.org/2000/svg">
<path d="M24.6184 16.009L26.3573 15.6887M26.3573 15.6887V17.2902M26.3573 15.6887C25.4878 17.4275 22.3213 20.8228 16.6106 20.4934" stroke="#F8C65D"/>
<path d="M37.5224 5.93671C33.7099 2.84941 28.8539 1 23.5659 1C11.309 1 1.3728 10.9362 1.3728 23.1931C1.3728 28.8919 3.52075 34.089 7.05122 38.019M37.5224 5.93671L36.5615 3.05915M37.5224 5.93671L34.5938 6.21653" stroke="#F8C65D"/>
<path d="M8.9688 41.5935C12.7813 44.6808 17.6373 46.5302 22.9253 46.5302C35.1822 46.5302 45.1184 36.594 45.1184 24.3371C45.1184 18.6383 42.9705 13.4412 39.44 9.51118M8.9688 41.5935L9.92973 44.4711M8.9688 41.5935L11.8974 41.3137" stroke="#F8C65D"/>
<circle cx="23.3829" cy="23.1931" r="9.97881" stroke="#F8C65D"/>
<path d="M6.54346 21.9146V24.7296C6.54346 25.5995 7.24866 26.3047 8.11858 26.3047C8.74589 26.3047 9.3134 26.677 9.56331 27.2524L10.6979 29.8646C10.9571 30.4612 10.864 31.1523 10.4563 31.6592C9.87723 32.3792 9.95737 33.4252 10.6394 34.0486L12.5921 35.8333C13.235 36.4209 14.1922 36.5036 14.9263 36.035C15.4895 35.6755 16.1989 35.6338 16.8003 35.9248L19.262 37.116C19.7843 37.3687 20.164 37.8445 20.2945 38.4099C20.4951 39.2793 21.2693 39.8952 22.1615 39.8952H24.6339C25.5391 39.8952 26.3281 39.2791 26.5476 38.401C26.688 37.8394 27.068 37.3678 27.5869 37.1112L29.8749 35.9798C30.5245 35.6585 31.2993 35.7276 31.8819 36.1587C32.6514 36.7282 33.7219 36.6487 34.3989 35.9717L36.0919 34.2786C36.7876 33.583 36.8856 32.4892 36.3248 31.681C35.9557 31.1491 35.8619 30.4732 36.0722 29.8609L36.8842 27.4965C37.1345 26.7676 37.7793 26.2459 38.5444 26.1531C39.5542 26.0307 40.3136 25.1737 40.3136 24.1565V22.2049C40.3136 21.1457 39.5312 20.2494 38.4817 20.1063C37.7446 20.0058 37.1142 19.5258 36.8211 18.842L35.8242 16.5159C35.5462 15.8673 35.6534 15.1177 36.102 14.5729C36.7614 13.7723 36.651 12.5896 35.8549 11.9248L33.8951 10.2883C33.2797 9.7744 32.3979 9.73179 31.7358 10.1839C31.2604 10.5086 30.658 10.5851 30.1165 10.3896L27.031 9.27533C26.4344 9.05989 26.0368 8.49363 26.0368 7.85932C26.0368 7.02786 25.3628 6.35382 24.5313 6.35382H22.271C21.386 6.35382 20.6358 7.00452 20.5106 7.88054C20.4193 8.51984 19.9886 9.05936 19.3854 9.29L16.6962 10.3182C16.0574 10.5625 15.3461 10.5324 14.7302 10.235C13.7308 9.75256 12.5325 9.99196 11.7952 10.8214L10.8032 11.9375C10.1734 12.646 10.0723 13.6799 10.553 14.497C10.9087 15.1017 10.9524 15.8404 10.6705 16.4828L9.56539 19.0015C9.30827 19.5875 8.76588 19.9984 8.13217 20.0873C7.22113 20.2152 6.54346 20.9946 6.54346 21.9146Z" stroke="#F8C65D"/>
<path d="M17.4343 29.3706H29.2401" stroke="#F8C65D"/>
<path d="M26.769 25.2065V20.8207C26.769 20.0338 27.4499 19.4198 28.2326 19.5008C28.909 19.5707 29.4231 20.1407 29.4231 20.8207V25.2065C29.4231 25.9394 28.8289 26.5335 28.0961 26.5335C27.3632 26.5335 26.769 25.9394 26.769 25.2065Z" stroke="#F8C65D"/>
<path d="M22.0557 25.8471V22.3126C22.0557 21.5322 22.7257 20.9203 23.5028 20.991C24.1863 21.0531 24.7097 21.6262 24.7097 22.3126V25.8471C24.7097 26.58 24.1156 27.1741 23.3827 27.1741C22.6498 27.1741 22.0557 26.58 22.0557 25.8471Z" stroke="#F8C65D"/>
<path d="M17.48 25.8471V25.0019C17.48 24.2423 18.1165 23.6377 18.8751 23.6767C19.5806 23.7129 20.134 24.2955 20.134 25.0019V25.8471C20.134 26.58 19.5399 27.1742 18.807 27.1742C18.0741 27.1742 17.48 26.58 17.48 25.8471Z" stroke="#F8C65D"/>
</svg>
