<svg width="40" height="41" viewBox="0 0 40 41" fill="none" xmlns="http://www.w3.org/2000/svg">
<path d="M37.0764 17.6001C37.0764 8.89401 30.3874 1.75026 21.8684 1.0277M37.0764 17.6001L39.3388 15.8405M37.0764 17.6001L34.9397 16.1757M5.594 25.0993C4.65057 23.2349 4.04795 21.1686 3.86806 18.9826M3.83887 16.6365C3.96511 14.4264 4.52284 12.3319 5.42913 10.4359M6.54117 8.46684C7.76364 6.60973 9.34822 5.01214 11.1944 3.77455M13.4055 2.52583C15.2441 1.66587 17.266 1.13239 19.3965 1" stroke="#F8C65D"/>
<circle cx="21.5752" cy="10.7711" r="3.60576" stroke="#F8C65D"/>
<mask id="path-3-inside-1_66_638" fill="white">
<path d="M29.6189 23.1303C29.6189 21.1636 28.767 19.2774 27.2506 17.8868C25.7342 16.4961 23.6776 15.7148 21.5331 15.7148C19.3886 15.7148 17.3319 16.4961 15.8155 17.8868C14.2992 19.2774 13.4473 21.1636 13.4473 23.1303L21.5331 23.1303H29.6189Z"/>
</mask>
<path d="M29.6189 23.1303C29.6189 21.1636 28.767 19.2774 27.2506 17.8868C25.7342 16.4961 23.6776 15.7148 21.5331 15.7148C19.3886 15.7148 17.3319 16.4961 15.8155 17.8868C14.2992 19.2774 13.4473 21.1636 13.4473 23.1303L21.5331 23.1303H29.6189Z" stroke="#F8C65D" stroke-width="2" mask="url(#path-3-inside-1_66_638)"/>
<rect x="1.18011" y="29.633" width="2.94914" height="11.7662" rx="1.47457" transform="rotate(-29.1157 1.18011 29.633)" stroke="#F8C65D"/>
<path d="M9.48027 34.6163L6.94668 29.8582C6.74343 29.4764 6.89285 29.0022 7.27821 28.806L8.3396 28.2655C11.3761 26.7193 14.8972 26.4228 18.1495 27.4395L20.3822 28.1374C20.598 28.2049 20.785 28.3427 20.9134 28.5289L21.0674 28.7524C21.4668 29.3318 21.2797 30.1292 20.6644 30.4706C20.48 30.5728 20.2639 30.6019 20.0591 30.552L15.9518 29.5512C15.8126 29.5173 15.6657 29.5378 15.5411 29.6085C15.3098 29.7397 15.2019 30.0149 15.2826 30.2684L15.2901 30.2921C15.3563 30.5 15.5311 30.6548 15.7455 30.6953L19.0322 31.3159C21.7058 31.8208 24.4717 31.3978 26.8723 30.1169L32.6171 27.0517C33.047 26.8223 33.5539 26.7858 34.0122 26.9513L34.3102 27.0589C34.8138 27.2406 35.1494 27.7185 35.1494 28.2539C35.1494 28.7122 34.9025 29.135 34.5034 29.3603L24.8243 34.8232C21.9721 36.433 18.6059 36.8712 15.4367 36.0454L10.4186 34.7378C10.3099 34.7095 10.1943 34.7265 10.0985 34.7851C9.88222 34.9172 9.59937 34.84 9.48027 34.6163Z" stroke="#F8C65D"/>
<circle cx="3.22501" cy="30.3782" r="0.5" stroke="#F8C65D" stroke-width="0.340655"/>
</svg>
