<svg width="38" height="40" viewBox="0 0 38 40" fill="none" xmlns="http://www.w3.org/2000/svg">
<circle cx="17.1823" cy="14.8721" r="14.2406" stroke="#F8C65D"/>
<circle cx="17.1817" cy="14.8725" r="10.6214" stroke="#F8C65D"/>
<path d="M19.4816 11.9318H24.1564V19.6226H19.4816M19.4816 11.9318V8.99124H14.7691V15.2117M19.4816 11.9318V19.6226M14.7691 15.2117H9.86816V19.6226H14.7691M14.7691 15.2117V19.6226M14.7691 19.6226H19.4816" stroke="#F8C65D"/>
<path d="M13.4876 29.1226L9.74269 35.9651C8.62876 37.8945 6.16168 38.5556 4.2323 37.4416C2.30293 36.3277 1.64188 33.8606 2.7558 31.9313L6.66395 25.1641" stroke="#F8C65D"/>
<path d="M13.7512 33.1937L16.4279 35.9458L20.7634 32.1004L24.5334 35.9458L37.2759 23.0902M37.2759 23.0902H32.6011M37.2759 23.0902V27.3503" stroke="#F8C65D"/>
</svg>
