<svg width="44" height="49" viewBox="0 0 44 49" fill="none" xmlns="http://www.w3.org/2000/svg">
<path d="M30.8965 12.4138V13.5517" stroke="#F8C65D" stroke-linecap="round"/>
<path d="M6.01709 31.6035L7.05157 32.6897L9.06881 30.7242M6.01709 25.5517L7.05157 26.6379L9.06881 24.569M6.01709 19.4483L7.05157 20.431L9.06881 18.4138M6.12054 13.3448L7.05157 14.3276L9.22399 12.1552M12.5861 13.8104H22.8792M12.3274 19.9138H25.9309M12.3274 26.1724H19.4654M12.3274 32.3276H17.2412" stroke="#F8C65D"/>
<path d="M27.431 4.96552H1V40.3448H20.5517M30.7931 22.1379V16.3448" stroke="#F8C65D"/>
<path d="M30.8447 5.79312V10.4483" stroke="#F8C65D" stroke-linecap="round"/>
<path d="M29.5992 3.2332C30.1772 2.23675 31.6161 2.23675 32.1942 3.2332L38.2183 13.618C38.7984 14.618 38.0768 15.8707 36.9208 15.8707H24.8726C23.7165 15.8707 22.995 14.618 23.5751 13.618L29.5992 3.2332Z" stroke="#F8C65D"/>
<circle cx="27.8967" cy="32.5862" r="7.46552" stroke="#F8C65D"/>
<circle cx="27.8966" cy="32.5862" r="10.1552" stroke="#F8C65D"/>
<path d="M37.2064 38.1207L42.4306 43.3448C42.7874 43.8012 43 44.3758 43 45C43 46.4855 41.7958 47.6897 40.3104 47.6897C39.6568 47.6897 39.0577 47.4566 38.5916 47.069L33.2759 41.7532" stroke="#F8C65D"/>
</svg>
