<svg width="50" height="49" viewBox="0 0 50 49" fill="none" xmlns="http://www.w3.org/2000/svg">
<mask id="mask0_65_224" style="mask-type:luminance" maskUnits="userSpaceOnUse" x="0" y="0" width="50" height="49">
<path d="M49.3518 0H0.351807V49H49.3518V0Z" fill="white"/>
</mask>
<g mask="url(#mask0_65_224)">
<mask id="mask1_65_224" style="mask-type:luminance" maskUnits="userSpaceOnUse" x="-7" y="-9" width="64" height="64">
<path d="M-6.99829 -8.88125H56.7017V54.8187H-6.99829V-8.88125Z" fill="white"/>
</mask>
<g mask="url(#mask1_65_224)">
<path d="M21.9706 26.7295V27.7871H20.9131V26.7295H21.9706Z" fill="#F8C65D"/>
<path d="M21.9706 26.7295V27.7871H20.9131V26.7295H21.9706Z" stroke="#F8C65D" stroke-width="0.5"/>
<path d="M25.3766 25.9549V27.0124H24.3191V25.9549H25.3766Z" fill="#F8C65D"/>
<path d="M25.3766 25.9549V27.0124H24.3191V25.9549H25.3766Z" stroke="#F8C65D" stroke-width="0.5"/>
<path d="M28.7204 26.7246V27.7821H27.6628V26.7246H28.7204Z" fill="#F8C65D"/>
<path d="M28.7204 26.7246V27.7821H27.6628V26.7246H28.7204Z" stroke="#F8C65D" stroke-width="0.5"/>
<path d="M22.5447 24.0875V24.7145H21.0518V24.0875H22.5447Z" fill="#F8C65D"/>
<path d="M22.5447 24.0875V24.7145H21.0518V24.0875H22.5447Z" stroke="#F8C65D" stroke-width="0.5"/>
<path d="M28.5804 24.0888V24.7159H27.0874V24.0888H28.5804Z" fill="#F8C65D"/>
<path d="M28.5804 24.0888V24.7159H27.0874V24.0888H28.5804Z" stroke="#F8C65D" stroke-width="0.5"/>
<path d="M25.5945 24.0196V24.6466H24.1016V24.0196H25.5945Z" fill="#F8C65D"/>
<path d="M25.5945 24.0196V24.6466H24.1016V24.0196H25.5945Z" stroke="#F8C65D" stroke-width="0.5"/>
<path d="M27.8376 23.7837V27.3504H30.3675V29.8402" stroke="#F8C65D" stroke-width="0.5" stroke-linejoin="round"/>
<path d="M24.8518 23.6407V30.9753" stroke="#F8C65D" stroke-width="0.5" stroke-miterlimit="10"/>
<path d="M21.8038 23.7837V27.3504H19.2739V29.8041" stroke="#F8C65D" stroke-width="0.5" stroke-linejoin="round"/>
<path d="M39.7815 18.7027C39.7815 18.9573 39.7628 19.2068 39.7254 19.4504C39.3657 21.8228 37.3197 23.6408 34.8491 23.6408H15.5316C13.0708 23.6408 10.9805 22.0546 10.2247 19.8479C10.0286 19.2768 9.92212 18.6633 9.92212 18.0252C9.92212 14.9248 12.4332 12.4104 15.5316 12.4104C16.0124 12.4104 16.4796 12.4706 16.926 12.5849C17.6051 8.27433 21.3341 4.97848 25.8319 4.97848C30.7319 4.97848 34.7191 8.8908 34.8462 13.7657H34.8491C37.573 13.7657 39.7815 15.9762 39.7815 18.7027Z" stroke="#F8C65D" stroke-width="0.5" stroke-linecap="round" stroke-linejoin="round"/>
<path d="M25.9395 44.0635C25.9395 44.6693 25.4483 45.1604 24.8424 45.1604C24.2365 45.1604 23.7454 44.6693 23.7454 44.0635C23.7454 43.4575 24.2365 42.9664 24.8424 42.9664C25.4483 42.9664 25.9395 43.4575 25.9395 44.0635Z" fill="#F8C65D"/>
<path d="M17.1168 44.0635C17.1168 44.4227 16.8254 44.7141 16.4661 44.7141C16.1069 44.7141 15.8157 44.4227 15.8157 44.0635C15.8157 43.7041 16.1069 43.413 16.4661 43.413C16.8254 43.413 17.1168 43.7041 17.1168 44.0635Z" stroke="#F8C65D" stroke-width="0.5" stroke-miterlimit="10"/>
<path d="M33.7777 44.0635C33.7777 44.4227 33.4862 44.7141 33.127 44.7141C32.7678 44.7141 32.4766 44.4227 32.4766 44.0635C32.4766 43.7041 32.7678 43.413 33.127 43.413C33.4862 43.413 33.7777 43.7041 33.7777 44.0635Z" stroke="#F8C65D" stroke-width="0.5" stroke-miterlimit="10"/>
<path d="M24.8425 43.9185V30.1177" stroke="#F8C65D" stroke-width="0.5" stroke-miterlimit="10"/>
<path d="M17.2083 44.0635H32.4766" stroke="#F8C65D" stroke-width="0.5" stroke-miterlimit="10"/>
<path d="M33.69 41.7679H15.8894V38.6713H33.69V41.7679Z" stroke="#F8C65D" stroke-width="0.5"/>
<path d="M31.6006 39.4408C31.6006 39.6379 31.4409 39.7975 31.2438 39.7975C31.0468 39.7975 30.887 39.6379 30.887 39.4408C30.887 39.2437 31.0468 39.0841 31.2438 39.0841C31.4409 39.0841 31.6006 39.2437 31.6006 39.4408Z" fill="white"/>
<path d="M32.9265 39.4408C32.9265 39.6379 32.7668 39.7975 32.5697 39.7975C32.3726 39.7975 32.2129 39.6379 32.2129 39.4408C32.2129 39.2437 32.3726 39.0841 32.5697 39.0841C32.7668 39.0841 32.9265 39.2437 32.9265 39.4408Z" fill="white"/>
<path d="M18.0404 40.3929H16.6238V40.0466H18.0404V40.3929Z" fill="white"/>
<path d="M18.0404 41.1718H16.6238V40.8254H18.0404V41.1718Z" fill="white"/>
<path d="M18.0404 39.6141H16.6238V39.2677H18.0404V39.6141Z" fill="white"/>
<path d="M33.69 37.4488H15.8894V34.3519H33.69V37.4488Z" stroke="#F8C65D" stroke-width="0.5"/>
<path d="M31.6006 35.1215C31.6006 35.3186 31.4409 35.4782 31.2438 35.4782C31.0468 35.4782 30.887 35.3186 30.887 35.1215C30.887 34.9244 31.0468 34.7646 31.2438 34.7646C31.4409 34.7646 31.6006 34.9244 31.6006 35.1215Z" fill="white"/>
<path d="M32.9265 35.1215C32.9265 35.3186 32.7668 35.4782 32.5697 35.4782C32.3726 35.4782 32.2129 35.3186 32.2129 35.1215C32.2129 34.9244 32.3726 34.7646 32.5697 34.7646C32.7668 34.7646 32.9265 34.9244 32.9265 35.1215Z" fill="white"/>
<path d="M18.0404 36.0737H16.6238V35.7273H18.0404V36.0737Z" fill="white"/>
<path d="M18.0404 36.8525H16.6238V36.5061H18.0404V36.8525Z" fill="white"/>
<path d="M18.0404 35.2946H16.6238V34.9482H18.0404V35.2946Z" fill="white"/>
<path d="M33.69 33.1292H15.8894V30.0327H33.69V33.1292Z" stroke="#F8C65D" stroke-width="0.5"/>
<path d="M25.0657 30.0327H33.6898V33.1292H25.0657V30.0327Z" stroke="#F8C65D" stroke-width="0.5"/>
<path d="M31.6006 30.802C31.6006 30.9991 31.4409 31.1589 31.2438 31.1589C31.0468 31.1589 30.887 30.9991 30.887 30.802C30.887 30.6049 31.0468 30.4453 31.2438 30.4453C31.4409 30.4453 31.6006 30.6049 31.6006 30.802Z" fill="white"/>
<path d="M32.9265 30.802C32.9265 30.9991 32.7668 31.1589 32.5697 31.1589C32.3726 31.1589 32.2129 30.9991 32.2129 30.802C32.2129 30.6049 32.3726 30.4453 32.5697 30.4453C32.7668 30.4453 32.9265 30.6049 32.9265 30.802Z" fill="white"/>
<path d="M18.0404 31.7541H16.6238V31.4078H18.0404V31.7541Z" fill="white"/>
<path d="M18.0404 32.5332H16.6238V32.1868H18.0404V32.5332Z" fill="white"/>
<path d="M18.0404 30.9754H16.6238V30.6291H18.0404V30.9754Z" fill="white"/>
<mask id="path-43-inside-1_65_224" fill="white">
<path d="M27.1278 13.7777V13.3996C27.1278 12.1444 26.1069 11.1231 24.852 11.1231C23.5968 11.1231 22.5756 12.1444 22.5756 13.3996V13.7777H22.1675V13.3996C22.1675 11.9193 23.3719 10.715 24.852 10.715C26.3324 10.715 27.537 11.9193 27.537 13.3996V13.7777H27.1278Z"/>
</mask>
<path d="M27.1278 13.7777V13.3996C27.1278 12.1444 26.1069 11.1231 24.852 11.1231C23.5968 11.1231 22.5756 12.1444 22.5756 13.3996V13.7777H22.1675V13.3996C22.1675 11.9193 23.3719 10.715 24.852 10.715C26.3324 10.715 27.537 11.9193 27.537 13.3996V13.7777H27.1278Z" fill="#F8C65D"/>
<path d="M27.1278 13.7777H26.6278V14.2777H27.1278V13.7777ZM22.5756 13.7777V14.2777H23.0756V13.7777H22.5756ZM22.1675 13.7777H21.6675V14.2777H22.1675V13.7777ZM27.537 13.7777V14.2777H28.037V13.7777H27.537ZM27.6278 13.7777V13.3996H26.6278V13.7777H27.6278ZM27.6278 13.3996C27.6278 11.8684 26.3832 10.6231 24.852 10.6231V11.6231C25.8306 11.6231 26.6278 12.4204 26.6278 13.3996H27.6278ZM24.852 10.6231C23.3207 10.6231 22.0756 11.8682 22.0756 13.3996H23.0756C23.0756 12.4205 23.873 11.6231 24.852 11.6231V10.6231ZM22.0756 13.3996V13.7777H23.0756V13.3996H22.0756ZM22.5756 13.2777H22.1675V14.2777H22.5756V13.2777ZM22.6675 13.7777V13.3996H21.6675V13.7777H22.6675ZM22.6675 13.3996C22.6675 12.1954 23.648 11.215 24.852 11.215V10.215C23.0958 10.215 21.6675 11.6431 21.6675 13.3996H22.6675ZM24.852 11.215C26.0563 11.215 27.037 12.1955 27.037 13.3996H28.037C28.037 11.6431 26.6084 10.215 24.852 10.215V11.215ZM27.037 13.3996V13.7777H28.037V13.3996H27.037ZM27.537 13.2777H27.1278V14.2777H27.537V13.2777Z" fill="#F8C65D" mask="url(#path-43-inside-1_65_224)"/>
<path d="M28.2128 19.9623H21.4906C21.3156 19.9623 21.1738 19.8207 21.1738 19.6459V14.2172C21.1738 14.0422 21.3156 13.9003 21.4906 13.9003H28.2128C28.388 13.9003 28.5298 14.0422 28.5298 14.2172V19.6459C28.5298 19.8207 28.388 19.9623 28.2128 19.9623Z" stroke="#F8C65D" stroke-width="0.5" stroke-miterlimit="10"/>
<path d="M25.67 18.5174L25.2813 16.7915C25.4963 16.6511 25.6388 16.4085 25.6388 16.1324C25.6388 15.6975 25.2865 15.3452 24.8517 15.3452C24.417 15.3452 24.0645 15.6975 24.0645 16.1324C24.0645 16.4085 24.207 16.6511 24.4222 16.7915L24.0334 18.5174H25.67Z" stroke="#F8C65D" stroke-width="0.5" stroke-linejoin="round"/>
</g>
</g>
</svg>
