<svg width="45" height="44" viewBox="0 0 45 44" fill="none" xmlns="http://www.w3.org/2000/svg">
<rect x="3.86768" y="39.36" width="39.854" height="4.13998" rx="1.5" stroke="#F8C65D"/>
<path d="M23.9274 38.86V17.1037M6.55786 38.86V24.858M6.55786 12.9386V7.39448C6.55786 6.50501 7.14528 5.72242 7.99937 5.47404L10.8559 4.6433M23.9274 9.92548V3.50638C23.9274 2.1737 22.6486 1.2138 21.369 1.58595L10.8559 4.6433M10.8559 4.6433V0" stroke="#F8C65D"/>
<path d="M0.5 15.2487C0.5 14.4203 1.17157 13.7487 2 13.7487H8.36858C9.19701 13.7487 9.86858 14.4203 9.86858 15.2487V20.1502C9.86858 20.5392 9.7175 20.9129 9.44721 21.1926L6.32716 24.4212C5.7445 25.0241 4.78075 25.0323 4.18787 24.4395L0.93934 21.1909C0.658036 20.9096 0.5 20.5281 0.5 20.1303V15.2487Z" stroke="#F8C65D"/>
<path d="M3.36768 18.9205V18.9205C4.05289 19.6057 5.16383 19.6057 5.84904 18.9205L7.79869 16.9708" stroke="#F8C65D"/>
<rect x="13.7043" y="8.25429" width="3.07654" height="3.07654" rx="1.5" stroke="#F8C65D"/>
<rect x="13.7043" y="15.4325" width="3.07654" height="3.07654" rx="1.5" stroke="#F8C65D"/>
<rect x="13.7043" y="22.6994" width="3.07654" height="3.07654" rx="1.5" stroke="#F8C65D"/>
<rect x="13.7043" y="29.789" width="3.07654" height="3.07654" rx="1.5" stroke="#F8C65D"/>
<rect x="22.3005" y="13.3943" width="20.1803" height="3.07654" rx="1.5" stroke="#F8C65D"/>
<path d="M39.3475 12.8943V10.5519C39.3475 9.4473 38.4521 8.55186 37.3475 8.55186H35.7644C34.6598 8.55186 33.7644 9.44729 33.7644 10.5519V12.8943" stroke="#F8C65D"/>
<path d="M36.0242 19.8953V22.7754M32.3464 19.8953V22.7754M28.6687 19.8953V22.7754" stroke="#F8C65D"/>
<path d="M28.6243 38.9043V33.4985M36.1127 38.9043L35.9663 29.5739C35.9492 28.4817 35.0589 27.6052 33.9666 27.6052H30.6243C29.5197 27.6052 28.6243 28.5007 28.6243 29.6052V33.4985M28.6243 33.4985H30.5296" stroke="#F8C65D"/>
<path d="M40.9426 38.9487V35.8026M40.9426 33.144V16.9708" stroke="#F8C65D"/>
</svg>
