<svg width="42" height="47" viewBox="0 0 42 47" fill="none" xmlns="http://www.w3.org/2000/svg">
<circle cx="20.9139" cy="21.0446" r="10.2149" stroke="#F8C65D"/>
<circle cx="20.0823" cy="44.044" r="2.45584" stroke="#F8C65D"/>
<circle cx="35.7854" cy="36.4699" r="2.45584" stroke="#F8C65D"/>
<circle cx="5.67263" cy="36.4699" r="2.45584" stroke="#F8C65D"/>
<path d="M8.53638 36.7471V36.7471C11.1636 36.7471 13.2934 34.6173 13.2934 31.99V28.6185" stroke="#F8C65D"/>
<path d="M28.0261 29.0809V31.2516C28.0261 33.9553 30.218 36.1472 32.9217 36.1472V36.1472" stroke="#F8C65D"/>
<path d="M20.3135 31.7584V41.0416" stroke="#F8C65D"/>
<path d="M0.5 25.0162V20.6416C0.5 19.1805 1.68447 17.9961 3.14558 17.9961V17.9961C4.22588 17.9961 5.19766 17.3392 5.60042 16.3368L6.33846 14.4999C6.74806 13.4804 6.51864 12.3154 5.75312 11.5274V11.5274C4.70531 10.4487 4.70554 8.7323 5.75365 7.65395L6.73625 6.64301C7.83668 5.51084 9.616 5.3968 10.852 6.37922V6.37922C11.7308 7.07776 12.9206 7.24149 13.9554 6.80628L15.5906 6.11857C16.5898 5.69836 17.2686 4.753 17.3474 3.67195V3.67195C17.4572 2.16584 18.7112 1 20.2213 1H21.9284C23.3066 1 24.4238 2.11722 24.4238 3.49538V3.49538C24.4238 4.43036 24.9465 5.28689 25.7779 5.7145L27.4879 6.59392C28.5644 7.14753 29.8702 6.98394 30.7769 6.18191V6.18191C31.9516 5.14275 33.7355 5.21 34.8287 6.33467L35.7787 7.31212C36.8614 8.42602 36.9361 10.1749 35.9525 11.3771V11.3771C35.2262 12.2649 35.0581 13.4846 35.5173 14.5357L36.1323 15.9433C36.5735 16.9532 37.5292 17.643 38.6265 17.7438V17.7438C40.1828 17.8867 41.3737 19.192 41.3737 20.7547V24.7852" stroke="#F8C65D"/>
</svg>
