<svg width="36" height="35" viewBox="0 0 36 35" fill="none" xmlns="http://www.w3.org/2000/svg">
<path d="M8.89111 22.4948L19.4376 24.9733M19.4376 24.9733V22.894C19.4376 22.3417 19.8853 21.894 20.4376 21.894H23.2127C23.765 21.894 24.2127 22.3417 24.2127 22.894V25.1986M19.4376 24.9733L19.4652 26.813C19.4695 27.0997 19.5967 27.3708 19.8145 27.5574L21.2848 28.8171C21.6923 29.1662 22.3026 29.1315 22.6679 28.7384L23.9452 27.364C24.1172 27.179 24.2127 26.9358 24.2127 26.6832V25.1986M24.2127 25.1986L33.671 23.1014C33.7998 23.0728 33.9216 23.0191 34.0295 22.9433L35.3089 22.0442" stroke="#F8C65D"/>
<path d="M11.0866 11.0182H6.48926" stroke="#F8C65D"/>
<path d="M3.33325 6.00903H4.60268" stroke="#F8C65D"/>
<path d="M4.63664 8.47931H3.22998" stroke="#F8C65D"/>
<path d="M3.22998 10.9152H4.60233" stroke="#F8C65D"/>
<path d="M6.76388 30.9172H2C1.44772 30.9172 1 30.4695 1 29.9172V2.20584C1 1.65356 1.44772 1.20584 2 1.20584H18.0515M18.0515 1.20584L22.9233 6.07769M18.0515 1.20584V5.07769C18.0515 5.62997 18.4992 6.07769 19.0515 6.07769H22.9233M22.9233 6.07769V9.43995" stroke="#F8C65D"/>
<path d="M14.7236 5.76895H6.55811M14.7236 8.44504H6.55811" stroke="#F8C65D"/>
<rect x="9.32251" y="16.5615" width="25.4178" height="17.9384" rx="0.5" stroke="#F8C65D"/>
<path d="M28.0352 16.0615V12.4642C28.0352 11.9119 27.5875 11.4642 27.0352 11.4642H16.8213C16.269 11.4642 15.8213 11.9119 15.8213 12.4642V16.0615" stroke="#F8C65D"/>
<path d="M25.6338 16.0616V14.5913C25.6338 14.0391 25.1861 13.5913 24.6338 13.5913H19.2231C18.6709 13.5913 18.2231 14.0391 18.2231 14.5913V16.0616" stroke="#F8C65D"/>
<path d="M25.9082 5.70032C28.1251 5.70032 30.3683 7.4975 30.3683 9.71445C30.3683 10.478 30.1552 11.1917 29.7851 11.7994" stroke="#F8C65D"/>
<path d="M24.9133 3.53885L25.1639 1.85297C25.2368 1.36285 25.6576 1 26.1531 1H26.4414C26.9114 1 27.3179 1.32722 27.4183 1.7863L27.6227 2.72072C27.6883 3.02063 27.8881 3.27378 28.1645 3.40737L29.3001 3.95629C29.6029 4.10263 29.959 4.08699 30.2478 3.91465L31.2674 3.30617C31.6493 3.07824 32.136 3.13052 32.4608 3.43437V3.43437C32.7695 3.7232 32.8628 4.17522 32.6936 4.56268L32.0996 5.92334C31.9809 6.19509 31.989 6.50548 32.1216 6.77069L32.502 7.53153C32.6086 7.74465 32.7877 7.91272 33.0072 8.00546L34.4923 8.63294C34.8624 8.78936 35.103 9.1522 35.103 9.55409V9.86281C35.103 10.3204 34.7925 10.7196 34.349 10.8321L33.3274 11.0913C33.0009 11.1741 32.7391 11.4159 32.6233 11.7322C32.3842 12.3853 32.0611 13.2024 31.9123 13.3512" stroke="#F8C65D"/>
</svg>
