<svg width="47" height="47" viewBox="0 0 47 47" fill="none" xmlns="http://www.w3.org/2000/svg">
<path d="M23.1108 27.2957H31.7541C34.9618 27.2957 37.5621 29.896 37.5621 33.1037V33.1037" stroke="#F8C65D"/>
<path d="M23.019 23.2713H42.2264" stroke="#F8C65D"/>
<path d="M23.2479 38.7744L23.0658 44.527C23.0398 45.348 22.3668 46 21.5455 46V46C20.8517 46 20.2458 45.5305 20.0726 44.8586L19.7342 43.5456C19.4218 42.3334 18.4423 41.4152 17.23 41.1031C16.2719 40.8565 15.2542 40.5568 14.4448 40.2394C13.4062 39.8322 12.6501 39.3654 11.6873 39.929V39.929C10.585 40.5743 8.79682 40.6564 7.88878 39.758L6.84622 38.7265C5.85221 37.7431 5.68784 36.1958 6.45305 35.0255V35.0255C7.07446 34.0751 7.08634 32.8557 6.55186 31.8539C6.10274 31.012 5.63359 30.0511 5.28973 29.1674C4.84634 28.0279 3.93065 26.9756 2.73586 26.7158V26.7158C1.48025 26.4429 0.60179 25.3079 0.652339 24.024L0.707008 22.6354C0.758002 21.3402 1.67764 20.2429 2.94406 19.9663V19.9663C4.05371 19.724 4.9038 18.8429 5.1951 17.7451C5.46144 16.7413 5.80985 15.6359 6.213 14.7299C6.68729 13.6641 6.85298 12.1766 6.17753 11.2255V11.2255C5.60452 10.4186 5.70049 9.31538 6.40422 8.61956L7.64563 7.39209C8.59978 6.44867 10.0605 6.24443 11.2368 6.88997V6.88997C12.3074 7.47751 13.6197 7.35124 14.6685 6.72541C15.9781 5.94385 17.673 5.16369 19.132 5.11585C19.051 5.11971 19.4571 3.52574 19.8231 2.15883C20.0066 1.47328 20.6296 1 21.3393 1V1C22.2149 1 22.9231 1.71284 22.9174 2.58842L22.8833 7.80293C22.8825 7.92725 22.8327 8.04624 22.7448 8.13415V8.13415" stroke="#F8C65D"/>
<path d="M22.7905 8.11441C14.3057 9.20563 7.79053 15.6374 7.79053 23.4085C7.79053 31.3188 14.541 37.8412 23.2478 38.7561" stroke="#F8C65D"/>
<path d="M23.0651 35.2073C16.5489 35.2073 11.2664 29.9248 11.2664 23.4085C11.2664 16.8923 16.5489 11.6098 23.0651 11.6098" stroke="#F8C65D"/>
<path d="M23.019 11.6098V35.2073" stroke="#F8C65D"/>
<path d="M23.019 19.4299H31.5709C34.7785 19.4299 37.3788 16.8296 37.3788 13.622V13.622" stroke="#F8C65D"/>
<path d="M23.0649 31.0457H32.5771" stroke="#F8C65D"/>
<path d="M23.019 15.4055H32.7142" stroke="#F8C65D"/>
<path d="M23.0649 12.4329V12.4329C26.7272 12.4329 29.696 9.41834 29.696 5.75609V5.75609" stroke="#F8C65D"/>
<circle cx="29.6961" cy="3.69817" r="1.55793" stroke="#F8C65D"/>
<circle cx="37.379" cy="11.564" r="1.55793" stroke="#F8C65D"/>
<circle cx="44.2386" cy="23.2714" r="1.55793" stroke="#F8C65D"/>
<circle cx="37.5618" cy="35.1616" r="1.55793" stroke="#F8C65D"/>
<circle cx="30.1534" cy="42.8445" r="1.55793" stroke="#F8C65D"/>
<path d="M30.1989 40.8323V40.8323C30.1989 37.4226 27.4348 34.6585 24.0251 34.6585H23.019" stroke="#F8C65D"/>
</svg>
