<svg width="39" height="41" viewBox="0 0 39 41" fill="none" xmlns="http://www.w3.org/2000/svg">
<path d="M31.0664 8.43386L32.7748 7.64893" stroke="#F8C65D" stroke-width="0.5"/>
<path d="M28.8499 5.80192L30.0042 3.86267" stroke="#F8C65D" stroke-width="0.5"/>
<path d="M25.8949 4.60212L25.7102 2.52435" stroke="#F8C65D" stroke-width="0.5"/>
<path d="M37.4999 1H13.6433C13.091 1 12.6433 1.44772 12.6433 2V18.7497C12.6433 19.2821 13.0605 19.7212 13.5922 19.7484L28.5844 20.515C28.7873 20.5254 28.9823 20.5974 29.1433 20.7214L33.1038 23.7703C33.7613 24.2765 34.7138 23.8077 34.7138 22.9779V19.8226C34.7138 19.2703 35.1615 18.8226 35.7138 18.8226H37.4999C38.0522 18.8226 38.4999 18.3749 38.4999 17.8226V2C38.4999 1.44772 38.0522 1 37.4999 1Z" stroke="#F8C65D" stroke-width="0.5"/>
<path d="M12.6434 14.7134H1.5C0.947716 14.7134 0.5 15.1611 0.5 15.7134V32.6441C0.5 33.1964 0.947715 33.6441 1.5 33.6441H3.7017C4.25399 33.6441 4.7017 34.0918 4.7017 34.6441V37.7402C4.7017 38.6311 5.77884 39.0773 6.40881 38.4473L10.9191 33.937C11.1067 33.7495 11.361 33.6441 11.6262 33.6441H26.6495C27.2017 33.6441 27.6495 33.1964 27.6495 32.6441V20.7158" stroke="#F8C65D" stroke-width="0.5"/>
<path d="M13.2438 19.0528L11.791 19.7969C11.5135 19.939 11.1857 19.9436 10.9044 19.8094L10.0183 19.3865C9.60671 19.19 9.11439 19.2969 8.82135 19.6463L8.53481 19.988C8.28161 20.2899 8.22929 20.7123 8.40119 21.0669L8.6647 21.6103C8.78746 21.8635 8.79787 22.1567 8.69336 22.418L8.34712 23.2836C8.20914 23.6286 7.87505 23.8547 7.50354 23.8547V23.8547C7.00175 23.8547 6.59497 24.2615 6.59497 24.7633V25.2222C6.59497 25.6476 6.86401 26.0264 7.2656 26.1664L8.0208 26.4299C8.36584 26.5502 8.61775 26.8492 8.67782 27.2097L8.77729 27.8065C8.82787 28.11 8.73594 28.4198 8.52805 28.6466L8.47872 28.7004C8.12096 29.0907 8.12941 29.6922 8.49798 30.0723L8.78987 30.3733C9.10265 30.6959 9.59217 30.7702 9.98662 30.5551L10.4014 30.3288C10.6792 30.1773 11.0121 30.1662 11.2994 30.2987L12.1692 30.7002C12.4584 30.8337 12.6436 31.1231 12.6436 31.4416V31.4416C12.6436 31.8926 13.0092 32.2581 13.4601 32.2581H14.211C14.6729 32.2581 15.0747 31.9418 15.1831 31.4928L15.2109 31.3775C15.281 31.0872 15.4771 30.8435 15.7456 30.7129L16.4986 30.3465C16.8264 30.1871 17.2149 30.2186 17.5127 30.4288L17.7754 30.6142C18.2295 30.9348 18.8579 30.8235 19.1743 30.3664L19.4567 29.9585C19.6916 29.6191 19.6939 29.1702 19.4624 28.8285L19.2698 28.5441C19.0339 28.1959 19.0411 27.7373 19.2877 27.3967L19.6451 26.9032C19.7756 26.723 19.9625 26.5914 20.1762 26.5294L20.5567 26.4189C20.9839 26.2949 21.2778 25.9035 21.2778 25.4586V24.6745C21.2778 24.1979 20.9414 23.7874 20.474 23.694L20.0515 23.6095C19.6725 23.5337 19.3712 23.2463 19.2775 22.8714L19.1792 22.4784C19.1325 22.2918 19.1407 22.0957 19.2027 21.9136L19.8465 20.0224" stroke="#F8C65D" stroke-width="0.5"/>
<circle cx="13.9824" cy="25.1027" r="2.75122" stroke="#F8C65D" stroke-width="0.5"/>
<path d="M22.0334 10.3597L22.0356 10.3432V10.3265C22.0356 8.34806 23.6395 6.7442 25.6179 6.7442C27.5946 6.7442 29.1974 8.34516 29.2003 10.3211C29.193 10.4711 29.1181 10.8214 28.8885 11.3336C28.6593 11.845 28.2816 12.5048 27.6838 13.2656L27.6755 13.2762L27.6684 13.2876C27.4973 13.5614 27.4009 13.8893 27.3476 14.1989C27.2596 14.7105 26.8726 15.1093 26.4352 15.1093H24.9349C24.5223 15.1093 24.1585 14.7591 24.0746 14.2944C24.0241 14.0149 23.9461 13.7239 23.8272 13.4694C23.7094 13.2173 23.5411 12.9785 23.2976 12.8352C22.9542 12.6333 22.6027 12.2453 22.3533 11.7786C22.104 11.3118 21.9745 10.7997 22.0334 10.3597Z" stroke="#F8C65D" stroke-width="0.5"/>
<path d="M30.9739 11.7581L32.7284 12.4507" stroke="#F8C65D" stroke-width="0.5"/>
<path d="M22.6167 5.66362L21.4624 4.09375" stroke="#F8C65D" stroke-width="0.5"/>
<path d="M20.7235 8.29534L18.5996 7.64893" stroke="#F8C65D" stroke-width="0.5"/>
<path d="M20.6312 11.7581L18.5535 12.4507" stroke="#F8C65D" stroke-width="0.5"/>
<path d="M24.1401 17.6219H27.4184" stroke="#F8C65D" stroke-width="0.5"/>
</svg>
