<svg width="39" height="38" viewBox="0 0 39 38" fill="none" xmlns="http://www.w3.org/2000/svg">
<rect x="1.23404" y="28.2723" width="5.8715" height="12.6857" rx="2.93575" transform="rotate(-42.3552 1.23404 28.2723)" stroke="#F8C65D" stroke-width="0.5"/>
<circle cx="9.90591" cy="34.4868" r="0.833642" stroke="#F8C65D" stroke-width="0.5"/>
<path d="M13.2338 32.3582V32.3582C14.1373 31.4046 15.3304 30.776 16.6279 30.5703L24.4857 29.3242C25.8549 29.1071 27.1288 28.4883 28.1459 27.5463L37.4489 18.9301C37.8761 18.5345 38.1189 17.9786 38.1189 17.3964V17.3964C38.1189 16.3467 37.3406 15.4598 36.2998 15.3236L36.0148 15.2862C35.2896 15.1913 34.5604 15.4297 34.0313 15.9347L27.2051 22.4506M27.2051 22.4506V22.4506C26.833 23.5899 25.79 24.3763 24.5923 24.4205L18.1876 24.6566M27.2051 22.4506V22.4506C27.5071 20.9809 26.4021 19.5973 24.9019 19.5667L17.3931 19.4139C15.4984 19.3754 13.6434 19.9599 12.1131 21.0776L6.57715 25.121" stroke="#F8C65D" stroke-width="0.5"/>
<circle cx="22.6772" cy="8.8664" r="4.54899" stroke="#F8C65D" stroke-width="0.5"/>
<path d="M19.8575 2.2429L19.6337 2.33966C19.2543 2.50374 18.8239 2.50374 18.4445 2.33966C17.9302 2.11726 17.3348 2.20043 16.9011 2.55524L16.3742 2.98635C15.8484 3.41659 15.6844 4.15034 15.977 4.76351C16.1751 5.17851 16.1683 5.66215 15.9587 6.07143L15.6995 6.5775C15.5639 6.84224 15.2915 7.00877 14.994 7.00877C14.5563 7.00877 14.2014 7.36363 14.2014 7.80137V9.49564C14.2014 10.024 14.532 10.496 15.0286 10.6766C15.3184 10.782 15.5594 10.9903 15.7056 11.2618L15.9748 11.7617C16.1717 12.1275 16.1668 12.5689 15.9617 12.9302C15.6801 13.4265 15.7843 14.0521 16.2115 14.4304L17.2704 15.3678C17.6084 15.667 18.1023 15.7103 18.4872 15.4744C18.8244 15.2677 19.2504 15.2731 19.5822 15.4884L20.0418 15.7865C20.3193 15.9665 20.5257 16.2373 20.6257 16.5527C20.829 17.1939 21.4523 17.6062 22.1219 17.5424L23.2085 17.4389C23.8248 17.3802 24.3462 16.9586 24.5326 16.3682L24.5481 16.3193C24.6398 16.0288 24.8245 15.7764 25.0737 15.6011C25.4822 15.3136 26.0136 15.2674 26.4656 15.4801L26.5551 15.5223C27.2261 15.838 28.0268 15.6378 28.4702 15.0433L28.89 14.4803C29.2146 14.045 29.2948 13.4742 29.1026 12.9663C28.9532 12.5714 28.9686 12.1297 29.1424 11.7449C29.3137 11.3655 29.627 11.0635 30.0136 10.9088L30.1331 10.861C30.8658 10.568 31.3462 9.85837 31.3462 9.06927V8.72702C31.3462 8.01142 30.8627 7.38619 30.1702 7.20612C29.6922 7.08186 29.3005 6.74018 29.1125 6.28356L29.0895 6.22769C28.9467 5.88102 28.9231 5.49676 29.0224 5.13522L29.0559 5.01295C29.2719 4.22624 29.0041 3.38615 28.3727 2.86955L27.9421 2.51726C27.5391 2.18753 26.9825 2.11875 26.5114 2.34047C26.1647 2.50362 25.765 2.51188 25.4118 2.36319L25.0945 2.22957C24.7219 2.07269 24.4557 1.7358 24.3893 1.33703C24.2945 0.768676 23.8028 0.352112 23.2266 0.352112H22.322C21.6428 0.352112 21.0265 0.749722 20.7466 1.36852C20.5693 1.76042 20.2523 2.07217 19.8575 2.2429Z" stroke="#F8C65D" stroke-width="0.5"/>
<path d="M19.6027 9.65164L19.6027 9.65163C19.3677 9.41206 19.252 9.11198 19.252 8.76893C19.252 8.42587 19.3678 8.12618 19.6036 7.88809L19.6036 7.88808C19.842 7.64738 20.1444 7.52933 20.4916 7.52933C20.7046 7.52933 20.9056 7.58029 21.0901 7.68279C21.1419 7.71155 21.1908 7.74334 21.2368 7.77815V7.57H21.4868H21.9721H22.2221V7.77689C22.2305 7.76892 22.2392 7.76107 22.2481 7.75335L22.2494 7.75218L22.2494 7.75219C22.4271 7.59991 22.6444 7.52933 22.8839 7.52933C23.0834 7.52933 23.2699 7.57631 23.4359 7.67639M19.6027 9.65164L23.4359 7.67639M19.6027 9.65164L19.6044 9.65334C19.843 9.89192 20.1451 10.0085 20.4916 10.0085C20.705 10.0085 20.9058 9.95918 21.0892 9.85829L21.0892 9.85829L21.0901 9.85777C21.1419 9.829 21.1909 9.79713 21.2368 9.7622M19.6027 9.65164L21.2368 9.7622M23.4359 7.67639C23.5695 7.75695 23.6764 7.86575 23.7569 7.99776M23.4359 7.67639L23.7569 7.99776M23.7569 7.99776C23.787 7.96028 23.8197 7.92405 23.855 7.88911M23.7569 7.99776L23.855 7.88911M21.2368 9.7622V9.96786H21.4868H21.9721H22.2221V9.79744C22.2423 9.81272 22.2632 9.82734 22.2849 9.8413C22.4671 9.95858 22.6837 10.0085 22.9191 10.0085C23.1761 10.0085 23.4104 9.94599 23.5979 9.79702C23.6776 9.73372 23.7404 9.66017 23.7871 9.57841C23.8083 9.60304 23.8307 9.62712 23.8542 9.65063L23.8542 9.65063L23.8558 9.65229C24.0974 9.88932 24.3967 10.0085 24.7386 10.0085C25.0805 10.0085 25.3794 9.88926 25.6194 9.65146L25.6194 9.65145C25.8614 9.41174 25.9836 9.11231 25.9836 8.76893C25.9836 8.4259 25.8616 8.12719 25.6194 7.88911C25.3797 7.64977 25.0808 7.52933 24.7386 7.52933C24.396 7.52933 24.0964 7.64999 23.855 7.88911M21.2368 9.7622L23.855 7.88911M23.855 7.88911C23.855 7.88911 23.855 7.88911 23.855 7.88911L24.0309 8.06672L23.855 7.88911ZM20.7678 8.76518L20.6729 8.58957C20.6621 8.56968 20.6457 8.55145 20.6139 8.53479L20.6073 8.53128L20.6073 8.53119C20.5778 8.51452 20.5413 8.50379 20.4916 8.50379C20.3972 8.50379 20.3419 8.53115 20.3013 8.57254L20.7678 8.76518ZM20.7678 8.76518L20.6716 8.94802C20.6598 8.97035 20.6423 8.98994 20.6107 9.00753C20.5805 9.02356 20.5427 9.03406 20.4916 9.03406C20.3971 9.03406 20.3415 9.00739 20.3013 8.96799C20.2618 8.92614 20.2346 8.86738 20.2346 8.76893C20.2346 8.66901 20.2626 8.61205 20.3013 8.57257L20.7678 8.76518ZM22.2221 8.94673C22.2233 8.94778 22.2245 8.94881 22.2257 8.94985L22.2221 8.95196V8.94673ZM21.2368 8.56147V8.97509L21.0184 8.84826L20.8786 8.76712L21.0173 8.68749L21.2368 8.56147ZM24.9278 8.57698L24.9278 8.57698L24.9295 8.57862C24.9743 8.62261 25.001 8.67884 25.001 8.76893C25.001 8.85846 24.9745 8.91649 24.9286 8.96276C24.8815 9.00872 24.8241 9.03406 24.7386 9.03406C24.6531 9.03406 24.5957 9.00872 24.5485 8.96277C24.5026 8.91649 24.4762 8.85846 24.4762 8.76893C24.4762 8.67885 24.5029 8.62261 24.5477 8.57862L24.5477 8.57863L24.5493 8.57698C24.597 8.52932 24.654 8.50379 24.7386 8.50379C24.8231 8.50379 24.8802 8.52932 24.9278 8.57698Z" stroke="#F8C65D" stroke-width="0.5"/>
</svg>
