<svg width="48" height="45" viewBox="0 0 48 45" fill="none" xmlns="http://www.w3.org/2000/svg">
<path d="M0.5 30.5425V21.2644C0.5 20.3127 1.27156 19.5411 2.22332 19.5411C2.54285 19.5411 2.85609 19.63 3.12804 19.7977L7.10889 22.2532C9.60561 23.7932 10.791 26.7927 10.0217 29.6236L9.44738 31.7367C8.76066 34.2635 6.08947 35.6919 3.6067 34.86C1.75083 34.2381 0.5 32.4998 0.5 30.5425Z" stroke="#F8C65D"/>
<path d="M8.14165 22.9196L5.24585 35.2669" stroke="#F8C65D"/>
<path d="M10.7561 26.9817L12.0147 26.7413C15.9151 25.9963 19.9192 25.9748 23.8274 26.6778V26.6778M23.8274 26.6778L25.5166 26.9817V26.9817C29.1251 28.09 33.0246 27.7358 36.3743 25.9955L45.3427 21.3359C45.4762 21.2665 45.6244 21.2303 45.7748 21.2303V21.2303C46.2925 21.2303 46.7122 21.65 46.7122 22.1677V27.8887C46.7122 29.9603 45.5111 31.8441 43.6328 32.7181L37.4817 35.5803C34.6298 36.9074 31.2648 36.44 28.8825 34.3858L26.2865 32.1475C25.447 31.4236 24.2671 31.2446 23.2507 31.6869L21.6737 32.373C20.354 32.9472 18.9774 33.4465 18.0568 32.3403V32.3403C17.0819 31.1689 18.6461 29.4114 19.994 28.7003L23.8274 26.6778Z" stroke="#F8C65D"/>
<path d="M32.8766 37.6399V37.6399C33.1849 39.8858 29.8862 39.3732 28.1031 37.9732L26.0393 36.3528" stroke="#F8C65D"/>
<path d="M30.9059 40.1335V40.1335C31.2142 42.3795 27.9155 41.8668 26.1324 40.4668L24.0686 38.8465" stroke="#F8C65D"/>
<path d="M28.7341 42.5064V42.5064C29.0396 44.732 25.753 44.2068 23.9861 42.8195L21.8968 41.1792L15.5418 35.9221C14.7914 35.3014 13.6908 35.3584 13.0085 36.0533V36.0533C12.4341 36.6383 11.5462 36.7824 10.8163 36.4089L8.58423 35.2669" stroke="#F8C65D"/>
<path d="M6.21118 21.6728L8.86566 20.9086V19.4064C7.37592 18.4916 6.37206 16.7692 6.37206 14.7953C6.37206 11.8632 8.5869 9.4863 11.319 9.4863C14.0512 9.4863 16.266 11.8632 16.266 14.7953C16.266 16.7692 15.2622 18.4916 13.7724 19.4064V20.9086L17.0302 22.1554M17.0302 22.1554C16.2258 22.3029 14.7618 23.2896 15.341 26.0567M17.0302 22.1554L21.2532 21.1499L21.1326 19.3803" stroke="#F8C65D"/>
<path d="M21.1727 19.4068C19.731 18.4921 18.7595 16.7695 18.7595 14.7953C18.7595 11.8632 20.9023 9.4863 23.5456 9.4863C26.1889 9.4863 28.3317 11.8632 28.3317 14.7953C28.3317 16.806 27.324 18.5557 25.8381 19.4567V20.9488L30.7047 22.075C31.4018 22.5978 32.6272 24.6731 31.7906 28.309" stroke="#F8C65D"/>
<path d="M42.8106 22.5978L38.105 20.9086V19.3672C39.4773 18.4429 40.3975 16.7414 40.3975 14.7953C40.3975 11.8632 38.3087 9.4863 35.732 9.4863C33.1554 9.4863 31.0666 11.8632 31.0666 14.7953C31.0666 16.8165 32.0592 18.5739 33.5199 19.4707V21.0695L30.7046 22.075" stroke="#F8C65D"/>
<path d="M31.6898 12.1408C30.6565 8.88639 27.4014 6.51004 23.5457 6.51004C19.786 6.51004 16.5973 8.76958 15.4829 11.8994" stroke="#F8C65D"/>
<path d="M12.6866 9.68739L12.334 8.86048C11.8424 7.70773 12.1009 6.37188 12.987 5.48573L13.8104 4.6623C14.4521 4.02063 15.4745 3.9664 16.1804 4.53659V4.53659C16.7016 4.95754 17.4154 5.04912 18.026 4.77338L19.8661 3.94235C20.4295 3.68793 20.8237 3.16316 20.9111 2.55124V2.55124C21.0382 1.66114 21.8006 1 22.6997 1H23.9601C25.0097 1 25.9416 1.67167 26.2735 2.66745V2.66745C26.507 3.36784 27.0452 3.92475 27.7372 4.18203L28.7445 4.55657C29.4026 4.80125 30.1342 4.75069 30.7524 4.41782V4.41782C31.7217 3.89591 32.9203 4.08736 33.6788 4.88523L34.1354 5.36558C34.9709 6.24443 35.2586 7.50988 34.8854 8.66358L34.6062 9.52651" stroke="#F8C65D"/>
</svg>
