<svg width="510" height="531" viewBox="0 0 510 531" fill="none" xmlns="http://www.w3.org/2000/svg">
<path d="M270.941 175.3L291.134 171.58M291.134 171.58V190.178M291.134 171.58C281.038 191.773 244.266 231.201 177.95 227.375" stroke="white" stroke-width="2"/>
<path d="M420.791 58.3349C376.518 22.4833 320.127 1.00684 258.72 1.00684C116.385 1.00684 1 116.392 1 258.727C1 324.904 25.9432 385.256 66.9411 430.894M420.791 58.3349L409.632 24.919M420.791 58.3349L386.782 61.5842" stroke="white" stroke-width="2"/>
<path d="M89.2092 472.402C133.482 508.254 189.873 529.73 251.28 529.73C393.615 529.73 509 414.345 509 272.011C509 205.833 484.057 145.481 443.059 99.8434M89.2092 472.402L100.368 505.818M89.2092 472.402L123.218 469.153" stroke="white" stroke-width="2"/>
<circle cx="256.594" cy="258.727" r="120.686" stroke="white" stroke-width="2"/>
<path d="M78.0461 294.86H80.1844C86.9548 294.86 93.0798 298.878 95.7771 305.088L110.092 338.044C112.608 343.838 111.705 350.55 107.746 355.472L104.526 359.474C98.9024 366.466 99.6807 376.624 106.304 382.678L134.317 408.281C139.994 413.47 148.449 414.201 154.932 410.062L160.913 406.245C165.887 403.07 172.152 402.702 177.464 405.272L211.006 421.502C215.64 423.744 219.008 427.966 220.166 432.982L221.67 439.503C223.451 447.216 230.319 452.68 238.235 452.68H275.735C283.536 452.68 290.336 447.371 292.228 439.803L294.009 432.678C295.219 427.838 298.494 423.774 302.966 421.563L334.968 405.737C340.68 402.913 347.493 403.52 352.616 407.311L359.066 412.084C365.833 417.092 375.246 416.392 381.199 410.439L408.091 383.548C413.905 377.733 414.725 368.591 410.037 361.835L404.974 354.539C401.889 350.093 401.105 344.444 402.863 339.326L414.675 304.933C416.79 298.773 422.241 294.362 428.707 293.579L438.251 292.422C446.786 291.387 453.205 284.143 453.205 275.545V240.62C453.205 232.119 446.925 224.924 438.502 223.776L427.671 222.299C421.754 221.492 416.695 217.64 414.342 212.151L399.893 178.437C397.389 172.593 398.354 165.841 402.396 160.933L407.401 154.856C413.34 147.644 412.346 136.989 405.174 131L376.458 107.021C370.62 102.146 362.255 101.742 355.974 106.031L351.985 108.755C347.475 111.835 341.76 112.561 336.624 110.706L298.64 96.9894C291.904 94.5567 287.414 88.1625 287.414 81V80.1782C287.414 70.7894 279.803 63.1782 270.414 63.1782H240.518C232.058 63.1782 224.885 69.399 223.689 77.7741L222.938 83.0332C222.065 89.145 217.947 94.303 212.18 96.5079L174.176 111.039C169.802 112.711 164.932 112.505 160.714 110.469L148.067 104.364C141.224 101.06 133.019 102.699 127.97 108.379L106.463 132.574C101.563 138.087 100.777 146.131 104.517 152.488L109.778 161.432C112.545 166.136 112.885 171.884 110.692 176.882L95.1461 212.312C92.7772 217.711 87.7801 221.497 81.9415 222.317L75.6833 223.195C67.2897 224.373 61.0461 231.554 61.0461 240.03V277.86C61.0461 287.249 68.6573 294.86 78.0461 294.86Z" stroke="#F8C65D" stroke-width="2"/>
<path d="M187.515 330.463H324.611" stroke="white" stroke-width="2"/>
<path d="M295.916 282.107V231.177C295.916 222.039 303.823 214.908 312.912 215.849C320.767 216.661 326.736 223.28 326.736 231.177V282.107C326.736 290.618 319.837 297.517 311.326 297.517C302.816 297.517 295.916 290.618 295.916 282.107Z" stroke="#F8C65D" stroke-width="2"/>
<path d="M241.184 289.546V248.501C241.184 239.439 248.965 232.333 257.99 233.154C265.927 233.876 272.004 240.531 272.004 248.501V289.546C272.004 298.057 265.105 304.957 256.594 304.957C248.083 304.957 241.184 298.057 241.184 289.546Z" stroke="white" stroke-width="2"/>
<path d="M188.046 289.546V279.731C188.046 270.91 195.437 263.889 204.247 264.341C212.439 264.762 218.866 271.528 218.866 279.731V289.546C218.866 298.057 211.967 304.956 203.456 304.956C194.945 304.956 188.046 298.057 188.046 289.546Z" stroke="#F8C65D" stroke-width="2"/>
</svg>
