<svg width="501" height="494" viewBox="0 0 501 494" fill="none" xmlns="http://www.w3.org/2000/svg">
<path d="M247 288.507H388C397.389 288.507 405 296.118 405 305.507V352.007" stroke="white" stroke-width="2"/>
<path d="M246 244.507H456" stroke="white" stroke-width="2"/>
<path d="M248.5 414.007L246.51 476.903C246.226 485.878 238.868 493.007 229.888 493.007V493.007C222.302 493.007 215.677 487.873 213.784 480.527L207.155 454.807C205.531 448.506 200.457 443.71 194.117 442.249C177.717 438.471 156.16 432.56 144.194 426.466C138.078 423.351 131.402 421.266 125.452 424.687C120.557 427.502 114.543 431.096 108.92 434.507C102.202 438.583 93.5624 437.611 87.9763 432.084L60.3711 404.773C54.6267 399.09 53.6769 390.148 58.099 383.385L70.1206 364.999C73.7117 359.507 73.8019 352.457 70.5723 346.745C63.0246 333.395 53.5173 314.697 49.0431 300.095C46.7435 292.59 41.0972 285.832 33.4269 284.165L14.4366 280.037C6.37601 278.284 0.736559 270.998 1.06107 262.756L2.48287 226.642C2.78741 218.907 8.2795 212.354 15.8426 210.702L35.582 206.391C42.2089 204.944 47.3091 199.69 48.8671 193.088C52.3295 178.417 57.8729 159.411 64.5757 146.225C69.0246 137.473 70.6884 125.231 65.0038 117.226L59.3628 109.283C54.5404 102.492 55.3481 93.2076 61.2707 87.3515L86.484 62.4215C91.8328 57.1329 100.021 55.988 106.615 59.6067L126.594 70.5704C132.595 73.8641 139.956 73.1979 145.629 69.3654C160.421 59.3725 183.906 46.6493 203.5 46.0068C202.61 46.0492 207.092 28.4759 211.106 13.4898C213.083 6.10502 219.795 1.00684 227.44 1.00684H227.889C237.321 1.00684 244.95 8.68589 244.888 18.1179L244.514 75.3856C244.505 76.7447 243.961 78.0457 243 79.0068V79.0068" stroke="#F8C65D" stroke-width="2"/>
<path d="M243.5 78.791C150.733 90.7217 79.5 161.042 79.5 246.007C79.5 332.492 153.305 403.804 248.5 413.807" stroke="white" stroke-width="2"/>
<path d="M246.5 375.007C175.255 375.007 117.5 317.252 117.5 246.007C117.5 174.762 175.255 117.007 246.5 117.007" stroke="#F8C65D" stroke-width="2"/>
<path d="M246 117.007V375.007" stroke="white" stroke-width="2"/>
<path d="M246 202.507H386C395.389 202.507 403 194.896 403 185.507V139.007" stroke="white" stroke-width="2"/>
<path d="M246.5 329.507H350.5" stroke="white" stroke-width="2"/>
<path d="M246 158.507H352" stroke="white" stroke-width="2"/>
<path d="M246.5 126.007H302C311.389 126.007 319 118.396 319 109.007V53.0068" stroke="white" stroke-width="2"/>
<circle cx="319" cy="30.5068" r="21.5" stroke="white" stroke-width="2"/>
<circle cx="403" cy="116.507" r="21.5" stroke="white" stroke-width="2"/>
<circle cx="478" cy="244.507" r="21.5" stroke="#F8C65D" stroke-width="2"/>
<circle cx="405" cy="374.507" r="21.5" stroke="white" stroke-width="2"/>
<circle cx="324" cy="458.507" r="21.5" stroke="white" stroke-width="2"/>
<path d="M324.5 436.507V386.007C324.5 376.618 316.889 369.007 307.5 369.007H246" stroke="white" stroke-width="2"/>
</svg>
