<svg width="529" height="523" viewBox="0 0 529 523" fill="none" xmlns="http://www.w3.org/2000/svg">
<path d="M122.916 331.194L284.681 369.208M284.681 369.208V321.978H357.923V372.664M284.681 369.208L284.923 385.353C285.104 397.428 290.46 408.843 299.63 416.7V416.7C313.357 428.461 333.92 427.291 346.225 414.05L348.132 411.999C354.425 405.227 357.923 396.325 357.923 387.08V372.664M357.923 372.664L500.137 341.131C503.999 340.274 507.654 338.662 510.891 336.388L528.118 324.282" stroke="#F8C65D" stroke-width="3"/>
<path d="M156.595 155.161H86.0796" stroke="white" stroke-width="3"/>
<path d="M37.6658 78.3306H57.1365" stroke="white" stroke-width="3"/>
<path d="M57.6628 116.219H36.0872" stroke="white" stroke-width="3"/>
<path d="M36.0872 153.582H57.1366" stroke="white" stroke-width="3"/>
<path d="M90.2895 460.378H1.88184V4.65723H263.421M263.421 4.65723L338.147 79.3828M263.421 4.65723V79.3828H338.147M338.147 79.3828V130.954" stroke="#F8C65D" stroke-width="3"/>
<path d="M212.376 74.647H87.1321M212.376 115.693H87.1321" stroke="white" stroke-width="3"/>
<rect x="123.364" y="234.018" width="402.202" height="287.482" rx="28.5" stroke="white" stroke-width="3"/>
<path d="M416.556 232.518V183.002C416.556 171.404 407.154 162.002 395.556 162.002H250.216C238.618 162.002 229.216 171.404 229.216 183.002V232.518" stroke="white" stroke-width="3"/>
<path d="M379.719 232.518V205.629C379.719 199.554 374.794 194.629 368.719 194.629H277.052C270.977 194.629 266.052 199.554 266.052 205.629V232.518" stroke="white" stroke-width="3"/>
<circle cx="321.833" cy="389.336" r="5.86731" stroke="white" stroke-width="3"/>
<path d="M383.929 73.5942C417.933 73.5942 452.34 101.16 452.34 135.164C452.34 146.875 449.07 157.822 443.394 167.143" stroke="white" stroke-width="3"/>
<path d="M368.668 40.4415L373.57 7.47076C374.079 4.03997 377.025 1.5 380.493 1.5H398.818C402.108 1.5 404.954 3.79054 405.657 7.00412L411.092 31.8538C411.552 33.9532 412.95 35.7252 414.885 36.6604L439.999 48.7989C442.118 49.8234 444.611 49.7138 446.632 48.5075L471.498 33.6684C474.176 32.0699 477.589 32.4366 479.867 34.5675L488.721 42.8507C490.887 44.8762 491.541 48.0462 490.355 50.7635L477.331 80.591C476.501 82.4933 476.557 84.666 477.485 86.5225L486.442 104.436C487.188 105.927 488.442 107.104 489.978 107.753L520.685 120.728C523.276 121.823 524.961 124.363 524.961 127.176V143.927C524.961 147.13 522.787 149.924 519.682 150.712L493.364 157.389C491.079 157.969 489.244 159.656 488.454 161.877C484.782 172.203 478.64 188.325 476.021 190.945" stroke="white" stroke-width="3"/>
</svg>
