<svg width="563" height="570" viewBox="0 0 563 570" fill="none" xmlns="http://www.w3.org/2000/svg">
<path d="M208.193 336.698V361.835C208.193 368.495 204.304 374.542 198.243 377.304L170.357 390.012C165.269 392.33 161.647 397.002 160.668 402.506L157.577 419.896M264.628 340.771L268.701 398.951" stroke="#F8C65D" stroke-width="2"/>
<path d="M345.498 341.935L340.371 458.71C340.301 460.323 340.789 461.91 341.755 463.204L369.352 500.184" stroke="white" stroke-width="2"/>
<path d="M408.914 339.025V353.61C408.914 359.703 412.175 365.33 417.461 368.359L450.208 387.129C454.299 389.474 457.232 393.413 458.307 398.004L463.022 418.15" stroke="#F8C65D" stroke-width="2"/>
<path d="M365.539 196.485C385.287 172.761 397.86 143.736 397.86 114.451C397.86 45.3673 361.638 1 292.554 1C229.86 1 190.396 38.4986 183.633 97.0689C182.245 109.093 186.413 120.865 192.652 131.237C197.913 139.983 202.187 148.146 205.668 155.759" stroke="white" stroke-width="2"/>
<path d="M449.64 243.074C467.804 234.67 480.476 215.669 480.476 193.576C480.476 163.693 457.293 139.469 428.695 139.469C413.093 139.469 399.102 146.68 389.609 158.086" stroke="#F8C65D" stroke-width="2"/>
<path d="M522.947 314.956C545.521 307.711 561.928 285.803 561.928 259.901C561.928 228.09 537.182 202.303 506.657 202.303C496.709 202.303 487.376 205.041 479.312 209.834" stroke="white" stroke-width="2"/>
<path d="M524.692 314.009C461.858 354.735 180.267 341.935 107.542 319.43C59.6637 310.474 23.1812 264.048 23.1812 208.121C23.1812 145.785 68.5048 95.252 124.414 95.252C148.189 95.252 170.05 104.39 187.325 119.688" stroke="white" stroke-width="2"/>
<path d="M226.229 68.4892C243.877 43.2779 292.205 7.98205 344.335 68.4892" stroke="#F8C65D" stroke-width="2"/>
<path d="M351.316 80.707C352.674 82.4524 355.272 87.3395 354.807 92.9248" stroke="#F8C65D" stroke-width="2"/>
<path d="M91.8335 71.9795C89.5063 71.9795 84.3864 72.6777 82.5247 75.4703" stroke="#F8C65D" stroke-width="2"/>
<path d="M1.07275 170.303C3.59389 148.001 20.5049 98.9748 67.9797 81.2881" stroke="#F8C65D" stroke-width="2"/>
<circle cx="156.995" cy="459.458" r="39.726" stroke="#F8C65D" stroke-width="2"/>
<circle cx="268.701" cy="436.186" r="37.3988" stroke="white" stroke-width="2"/>
<circle cx="393.206" cy="531.601" r="37.3988" stroke="#F8C65D" stroke-width="2"/>
<circle cx="463.022" cy="454.804" r="37.3988" stroke="white" stroke-width="2"/>
</svg>
