<svg width="504" height="502" viewBox="0 0 504 502" fill="none" xmlns="http://www.w3.org/2000/svg">
<path d="M269 133.082H235.157C231.981 133.082 229.354 135.559 229.168 138.73L228.202 155.153C228.077 157.277 226.836 159.177 224.941 160.144L208.386 168.598C206.069 169.781 203.254 169.336 201.415 167.497L188.302 154.384C185.936 152.018 182.091 152.045 179.758 154.444L152.626 182.34C150.338 184.693 150.364 188.446 152.684 190.766L163.636 201.718C165.366 203.449 165.872 206.057 164.914 208.31L158.053 224.432C157.111 226.645 154.938 228.082 152.533 228.082H139C135.686 228.082 133 230.769 133 234.082V270.582C133 273.896 135.686 276.582 139 276.582H153.054C155.188 276.582 157.161 277.716 158.236 279.559L168.169 296.587C169.543 298.941 169.157 301.926 167.229 303.853L155.679 315.403C153.361 317.722 153.332 321.471 155.615 323.824L179.698 348.648C182.053 351.076 185.949 351.078 188.307 348.653L199.056 337.596C200.566 336.043 202.796 335.425 204.89 335.978L223.532 340.902C226.166 341.598 228 343.98 228 346.703V366.582C228 369.896 230.686 372.582 234 372.582H269C272.314 372.582 275 369.896 275 366.582V349.016C275 346.627 276.417 344.466 278.608 343.514L294.555 336.58C296.662 335.664 299.108 336.032 300.852 337.527L314.902 349.57C317.232 351.567 320.693 351.484 322.925 349.378L350.128 323.708C352.541 321.431 352.648 317.627 350.365 315.218L339.026 303.249C337.476 301.612 336.974 299.245 337.726 297.12L343.671 280.335C344.476 278.061 346.566 276.49 348.974 276.348L364.852 275.414C368.024 275.228 370.5 272.602 370.5 269.425V233.082C370.5 229.769 367.814 227.082 364.5 227.082H350.821C348.49 227.082 346.37 225.732 345.384 223.62L338.157 208.134C337.15 205.976 337.515 203.427 339.086 201.637L350.709 188.4C352.829 185.986 352.671 182.33 350.35 180.108L322.872 153.791C320.667 151.679 317.227 151.56 314.881 153.515L301.015 165.07C299.183 166.596 296.622 166.893 294.49 165.827L278.317 157.741C276.284 156.724 275 154.647 275 152.374V139.082C275 135.769 272.314 133.082 269 133.082Z" stroke="#F8C65D" stroke-width="2"/>
<path d="M217 36.0823C175.5 43.7489 84.3 81.4823 51.5 171.082M51.5 171.082C74.7 164.282 79.1667 162.916 78.5 163.082M51.5 171.082L42.5 149.582" stroke="white" stroke-width="2"/>
<path d="M39.188 284.583C42.5 332.082 86.5376 417.114 174.5 454.082M174.5 454.082C168.796 430.589 167.64 426.063 167.776 426.737M174.5 454.082L152.601 462.064" stroke="white" stroke-width="2"/>
<path d="M286 464.111C333.599 462.879 413.835 416.822 454.614 330.56M454.614 330.56C430.893 335.231 426.321 336.188 427 336.082M454.614 330.56L461.63 352.787" stroke="white" stroke-width="2"/>
<path d="M463.33 217.162C465.491 169.596 420.5 94.0823 332.126 48.4656M332.126 48.4656C335.096 72.4584 335.724 77.087 335.667 76.4022M332.126 48.4656L354.796 43.0501" stroke="white" stroke-width="2"/>
<circle cx="251.5" cy="252.082" r="49.5" stroke="#F8C65D" stroke-width="2"/>
<circle cx="252" cy="35.5823" r="34" stroke="white" stroke-width="2"/>
<circle cx="469" cy="251.582" r="34" stroke="white" stroke-width="2"/>
<circle cx="252" cy="466.582" r="34" stroke="white" stroke-width="2"/>
<circle cx="35" cy="250.582" r="34" stroke="white" stroke-width="2"/>
</svg>
