<svg width="524" height="528" viewBox="0 0 524 528" fill="none" xmlns="http://www.w3.org/2000/svg">
<rect x="2.28063" y="391.667" width="87.1891" height="182.576" rx="10" transform="rotate(-42.3552 2.28063 391.667)" stroke="white" stroke-width="2"/>
<circle cx="127.198" cy="478.822" r="14.169" stroke="#F8C65D" stroke-width="2"/>
<path d="M173.788 449.026L191.655 430.167C192.716 429.047 194.117 428.309 195.64 428.067L358.591 402.227C359.96 402.01 361.234 401.391 362.251 400.449L519.889 254.449C521.319 253.125 522.132 251.263 522.132 249.314V220.051C522.132 216.536 519.526 213.566 516.041 213.11L479.946 208.383C477.846 208.108 475.735 208.798 474.203 210.26L369.359 310.339M369.359 310.339V310.339C364.152 326.287 349.551 337.295 332.785 337.913L243.132 341.218M369.359 310.339V310.339C373.587 289.765 358.119 270.397 337.12 269.97L213.739 267.459C199.069 267.161 184.707 271.686 172.858 280.34L80.6072 347.719" stroke="#F8C65D" stroke-width="2"/>
<circle cx="305.974" cy="120.185" r="66.1768" stroke="#F8C65D" stroke-width="2"/>
<path d="M252.272 31.22L238.918 25.4452C236.515 24.4061 233.733 24.7947 231.707 26.4525L209.459 44.6549C206.964 46.6965 206.186 50.1782 207.574 53.0878L215.095 68.8444C216.035 70.8137 216.002 73.1086 215.008 75.0507L207.16 90.3719C205.963 92.71 203.557 94.1808 200.93 94.1808H194.332C190.466 94.1808 187.332 97.3148 187.332 101.181V136.41C187.332 139.353 189.173 141.983 191.939 142.988L202.703 146.902C204.317 147.489 205.659 148.65 206.474 150.162L214.751 165.534C215.893 167.655 215.864 170.214 214.675 172.308L208.01 184.052C206.377 186.928 206.981 190.556 209.458 192.748L234.376 214.807C236.681 216.847 240.049 217.142 242.674 215.533L251.286 210.255C253.586 208.845 256.491 208.882 258.754 210.35L272.99 219.585C274.351 220.467 275.363 221.795 275.853 223.342L280.429 237.773C281.426 240.917 284.482 242.938 287.765 242.626L323.029 239.267C325.827 239.001 328.194 237.087 329.041 234.407L333.433 220.497C333.895 219.034 334.825 217.763 336.08 216.88L345.445 210.29C347.502 208.842 350.178 208.609 352.454 209.68L371.228 218.515C374.239 219.932 377.831 219.034 379.82 216.366L397.946 192.061C399.374 190.146 399.727 187.634 398.881 185.399L393.681 171.656C393.024 169.918 393.084 167.991 393.849 166.298L399.078 154.719C399.823 153.069 401.177 151.772 402.858 151.1L422.926 143.073C425.584 142.01 427.326 139.436 427.326 136.574V106.636C427.326 103.449 425.173 100.664 422.088 99.8615L403.62 95.0599C401.491 94.5063 399.746 92.9843 398.909 90.9503L393.565 77.973C392.975 76.5392 392.877 74.95 393.287 73.4548L399.034 52.5209C399.767 49.8523 398.858 47.0026 396.716 45.2502L373.86 26.5497C371.772 24.8413 368.888 24.4849 366.447 25.6337L354.845 31.0933C353.049 31.9386 350.978 31.9814 349.148 31.211L334.991 25.25C332.778 24.3183 331.197 22.3176 330.803 19.9494L328.619 6.84921C328.057 3.47389 325.136 1 321.715 1H289.904C287.155 1 284.66 2.60968 283.527 5.11482L276.21 21.2878C275.493 22.8743 274.209 24.1364 272.611 24.8276L257.828 31.22C256.056 31.9866 254.045 31.9866 252.272 31.22Z" stroke="white" stroke-width="2"/>
<path d="M265.261 128.9L265.263 128.902C267.945 131.584 271.324 132.922 275.383 132.922C277.852 132.922 280.12 132.356 282.183 131.221L282.184 131.221C284.27 130.061 285.91 128.487 287.097 126.5L287.227 126.283L287.008 126.156L281.125 122.74L280.9 122.609L280.779 122.84C280.297 123.755 279.575 124.479 278.603 125.014C277.657 125.523 276.585 125.78 275.383 125.78C273.314 125.78 271.662 125.143 270.4 123.882C269.162 122.595 268.536 120.915 268.536 118.819C268.536 116.722 269.163 115.056 270.4 113.795C271.662 112.508 273.315 111.858 275.383 111.858C276.584 111.858 277.654 112.128 278.6 112.661L278.6 112.661L278.606 112.665C279.578 113.175 280.299 113.874 280.78 114.763L280.902 114.989L281.124 114.861L287.007 111.484L287.229 111.356L287.096 111.137C285.909 109.176 284.27 107.615 282.184 106.456C280.096 105.296 277.828 104.717 275.383 104.717C271.324 104.717 267.944 106.068 265.262 108.776L265.262 108.776C262.606 111.457 261.28 114.811 261.28 118.819C261.28 122.827 262.606 126.194 265.261 128.9ZM289.314 105.286H289.064V105.536V132.103V132.353H289.314H296.108H296.358V132.103V105.536V105.286H296.108H289.314ZM298.384 125.852L298.204 125.957L298.275 126.153C299.028 128.23 300.354 129.88 302.246 131.098C304.143 132.32 306.521 132.922 309.364 132.922C312.441 132.922 314.942 132.178 316.845 130.666C318.758 129.146 319.71 127.034 319.71 124.36C319.71 123.017 319.477 121.84 319.003 120.839C318.528 119.809 317.8 118.977 316.827 118.345C315.882 117.707 315.008 117.218 314.205 116.881C313.409 116.547 312.362 116.19 311.067 115.809C309.272 115.278 308.089 114.819 307.49 114.435C306.933 114.064 306.692 113.641 306.692 113.164C306.692 112.738 306.857 112.391 307.204 112.108C307.574 111.827 308.13 111.669 308.909 111.669C309.825 111.669 310.598 111.903 311.24 112.362C311.883 112.822 312.411 113.521 312.815 114.476L312.926 114.739L313.172 114.595L318.865 111.255L319.06 111.14L318.965 110.934C318.035 108.919 316.687 107.374 314.921 106.309C313.157 105.245 311.138 104.717 308.871 104.717C306.188 104.717 303.927 105.492 302.105 107.054L302.103 107.055C300.299 108.624 299.399 110.681 299.399 113.202C299.399 115.535 300.127 117.392 301.606 118.739L301.607 118.74C303.06 120.037 305.019 121.038 307.473 121.754L307.475 121.755C309.199 122.236 310.298 122.574 310.789 122.771C311.951 123.24 312.416 123.811 312.416 124.436C312.416 124.941 312.205 125.304 311.764 125.557C311.301 125.822 310.576 125.97 309.554 125.97C308.342 125.97 307.33 125.686 306.506 125.13C305.681 124.575 305.026 123.735 304.547 122.594L304.437 122.331L304.191 122.474L298.384 125.852ZM324.751 128.864L324.753 128.865C327.508 131.569 330.873 132.922 334.833 132.922C338.793 132.922 342.146 131.569 344.877 128.865C347.633 126.134 349.012 122.781 349.012 118.819C349.012 114.858 347.633 111.517 344.877 108.812C342.147 106.082 338.794 104.717 334.833 104.717C330.873 104.717 327.507 106.083 324.752 108.812C322.021 111.517 320.655 114.859 320.655 118.819C320.655 122.78 322.021 126.133 324.751 128.864ZM339.78 113.835L339.782 113.836C341.095 115.125 341.756 116.779 341.756 118.819C341.756 120.859 341.095 122.526 339.781 123.841C338.465 125.132 336.822 125.78 334.833 125.78C332.845 125.78 331.201 125.132 329.885 123.841C328.571 122.526 327.91 120.859 327.91 118.819C327.91 116.779 328.571 115.125 329.885 113.836L329.886 113.835C331.203 112.518 332.846 111.858 334.833 111.858C336.821 111.858 338.464 112.518 339.78 113.835Z" stroke="white" stroke-width="0.5"/>
</svg>
