<svg width="487" height="522" viewBox="0 0 487 522" fill="none" xmlns="http://www.w3.org/2000/svg">
<circle cx="218.291" cy="195.5" r="194" stroke="#F8C65D" stroke-width="3"/>
<circle cx="218.291" cy="195.5" r="146" stroke="white" stroke-width="3"/>
<path d="M248.791 156.5H310.791V258.5H248.791M248.791 156.5V117.5H186.291V200M248.791 156.5V258.5M186.291 200H121.291V258.5H186.291M186.291 200V258.5M186.291 258.5H248.791" stroke="white" stroke-width="3"/>
<path d="M169.291 384.5L119.623 475.25C104.85 500.839 72.1296 509.606 46.5409 494.832C20.9523 480.059 12.1849 447.339 26.9586 421.75L78.791 332" stroke="#F8C65D" stroke-width="3"/>
<path d="M172.791 438.5L208.291 475L265.791 424L315.791 475L484.791 304.5M484.791 304.5H422.791M484.791 304.5V361" stroke="white" stroke-width="3"/>
</svg>
